<svg id="Layer_1" data-name="Layer 1" xmlns="http://www.w3.org/2000/svg" xmlns:xlink="http://www.w3.org/1999/xlink" viewBox="0 0 640.21 532"><defs><style>.cls-1{fill:none;}.cls-2{fill:#f41c70;}.cls-3{fill:#ffb316;}.cls-4{fill:#ff8001;}.cls-5{clip-path:url(#clip-path);}.cls-6{fill:url(#linear-gradient);}.cls-7{clip-path:url(#clip-path-2);}.cls-8{fill:url(#linear-gradient-2);}.cls-9{clip-path:url(#clip-path-3);}.cls-10{fill:url(#linear-gradient-3);}.cls-11{fill:#ff0001;}</style><clipPath id="clip-path" transform="translate(-179.9 -234)"><polygon class="cls-1" points="704.02 435 820.1 502 820.1 368 704.02 435"/></clipPath><linearGradient id="linear-gradient" x1="220.47" y1="885.72" x2="228.57" y2="885.72" gradientTransform="matrix(14.33, 0, 0, -14.33, -2635.81, 12895.89)" gradientUnits="userSpaceOnUse"><stop offset="0" stop-color="#0c014e"/><stop offset="0.08" stop-color="#250153"/><stop offset="0.2" stop-color="#44015a"/><stop offset="1" stop-color="#af196e"/></linearGradient><clipPath id="clip-path-2" transform="translate(-179.9 -234)"><polygon class="cls-1" points="704.02 435 820.09 367.99 704.02 301 704.02 435"/></clipPath><linearGradient id="linear-gradient-2" x1="196.8" y1="921.1" x2="204.89" y2="921.1" gradientTransform="matrix(0, 16.55, 16.55, 0, -14659.73, -3189.47)" gradientUnits="userSpaceOnUse"><stop offset="0" stop-color="#ff2800"/><stop offset="0.1" stop-color="#ff2800"/><stop offset="0.3" stop-color="#ff3e00"/><stop offset="0.77" stop-color="#ff6e01"/><stop offset="1" stop-color="#ff8001"/></linearGradient><clipPath id="clip-path-3" transform="translate(-179.9 -234)"><polygon class="cls-1" points="704.02 569.02 820.1 502 704.02 435 704.02 569.02"/></clipPath><linearGradient id="linear-gradient-3" x1="220.47" y1="881.62" x2="228.57" y2="881.62" gradientTransform="matrix(14.33, 0, 0, -14.33, -2635.81, 12904.16)" gradientUnits="userSpaceOnUse"><stop offset="0" stop-color="#a50020"/><stop offset="0.05" stop-color="#a50020"/><stop offset="0.31" stop-color="#c7012d"/><stop offset="0.58" stop-color="#e20137"/><stop offset="0.82" stop-color="#f2023e"/><stop offset="1" stop-color="#f80240"/></linearGradient></defs><title>Robi Axiata Limited Logo Vector</title><polygon class="cls-2" points="408.07 268.01 524.13 335.02 524.13 201 408.07 268.01"/><polygon class="cls-3" points="408.07 0 408.07 134 524.13 67 408.07 0"/><polygon class="cls-4" points="524.13 67 524.13 67 408.08 134 524.13 201 524.13 67"/><g class="cls-5"><rect class="cls-6" x="524.13" y="134" width="116.08" height="134"/></g><g class="cls-7"><rect class="cls-8" x="524.13" y="67" width="116.06" height="134"/></g><g class="cls-9"><rect class="cls-10" x="524.13" y="201.01" width="116.08" height="134.01"/></g><path class="cls-11" d="M367.39,603.34c-47.18,0-84.16,35.65-84.16,81.19,0,45.31,36.71,80.82,83.61,80.82,47.33,0,84.46-35.59,84.46-81.15,0-45.32-36.84-80.86-83.91-80.86m0,130.72c-27.19,0-47.72-21.39-47.72-49.86s20.28-49.86,47.17-49.86,48,22.07,48,50.19-20.34,49.53-47.41,49.53" transform="translate(-179.9 -234)"/><path class="cls-11" d="M704,762.49v-159c-4.36,1.09-22.76,6.63-32.72,17.08-4.29,4.41-6.5,9.46-6.49,13.62V762.49Z" transform="translate(-179.9 -234)"/><path class="cls-11" d="M567.34,604C545,604,528,613.15,514,632v-83c-15.25,5.34-28.05,14-32.45,19.34C476.75,574.19,475,579,475,588.27V762.49h39V739.33c13.16,17.51,31,26.67,53.37,26.67,35.77,0,73.77-28.57,73.77-81.44,0-52.37-38-80.6-73.77-80.6m-8.05,130.72c-25.77,0-44.4-21.1-44.4-50.12,0-28.25,19.06-49.6,44.4-49.6,26.08,0,45,20.86,45,49.6,0,30-18.11,50.12-45,50.12" transform="translate(-179.9 -234)"/><path class="cls-11" d="M274,605.44c-24.41,0-43.48,12.31-54.89,34.14V603.52c-4.38,1.09-22.77,6.63-32.74,17.08-4.27,4.41-6.49,9.46-6.48,13.62V762.49h39.22V702c0-35,18.29-56.68,50.25-59.46,4.37-.25,9-1.2,9-8.08v-29Z" transform="translate(-179.9 -234)"/></svg>