<?xml version="1.0" encoding="utf-8"?>
<!-- Generator: Adobe Illustrator 25.0.1, SVG Export Plug-In . SVG Version: 6.00 Build 0)  -->
<svg version="1.0" id="katman_1" xmlns="http://www.w3.org/2000/svg" xmlns:xlink="http://www.w3.org/1999/xlink" x="0px" y="0px"
	 viewBox="0 0 560 400" style="enable-background:new 0 0 560 400;" xml:space="preserve">
<style type="text/css">
	.st0{fill:#6AC537;}
	.st1{fill:#717476;}
	.st2{fill:#FFFFFF;}
</style>
<g transform="matrix(.44522 0 0 .44522 57.1955 -22.3288)">
	<path class="st0" d="M623.3,694.9c-0.3-0.8,1-4.6,1.6-5.7c5.3-9.8,20.9-62.7,24.1-81.2c1.3-7.7,3.9-16,4.9-16c0.4,0,2.6-1.8,4.9-4
		c2.3-2.2,7-6.3,10.4-9.1s8-6.6,10.2-8.5c5.8-4.8,10.5-8.1,14.2-10.1c1.8-0.9,3.2-2,3.2-2.4c0-0.8,19.2-13.9,20.4-13.9
		c0.4,0,2.1-1.1,3.7-2.4c7.1-6,50.3-27.7,58.1-29.2c1.8-0.4,4.2-1.2,5.3-1.9c3.1-2,24.9-8,36-10c16.4-2.9,39.7-2,44,1.7
		c0.5,0.5,1.6,0.8,2.4,0.8c1.7,0,11.1,4.6,13.2,6.5c0.8,0.8,3.7,3.3,6.4,5.7c14.2,12.4,20.5,35.4,17.7,64.8
		c-1.2,12.7-4.4,33.5-6.2,40.2c-1.5,5.5-3.8,4.8-7.9-2.5c-11-19.3-30.2-30.8-51.5-30.8c-8.3,0-26.6,2.7-38,5.5
		c-54.3,13.7-110.6,44.6-157.3,86.4c-6.2,5.6-19,16.2-19.5,16.2c-0.5,0,9.1-9.1,9.1-8.3c0,0.8-0.9,2.4-4.5,5.2
		C626,693.9,623.9,696.6,623.3,694.9L623.3,694.9z M116.5,599c-7.7-2.4-14.8-12-18-24.5c-1.6-6.2-1.9-12.8-2.2-55.4
		c-0.2-26.6-0.1-49.4,0.1-50.6c0.8-3.1,5.5-8,10.1-10.4c3.9-2,5.3-2.1,52.3-2.1H207v-3.1c0-5.4-4.7-12.5-9.9-15.1
		c-4.4-2.2-5.6-2.3-34.6-2.4c-16.5-0.1-30.8-0.2-31.8-0.2c-3.1-0.2-2.3-7.2,1.1-10.5c4.1-4,8-4.5,32.3-4.6
		c31.2-0.1,41.7,1.7,49.8,8.7c6,5.1,9,12,9,20.5l0,6.8h18.9l0.6-5.8c1.5-14.5,6.4-22.1,17-26.3l6-2.4h91.7l2.4,2.8
		c1.7,1.9,2.4,4,2.4,6.8c0,3.3-0.4,4.1-2.6,4.9c-1.5,0.6-20.3,1-45.8,1c-23.8,0-44.9,0.4-47,0.9c-6.6,1.6-10.7,7.1-10.7,14.5v3.5
		l93.5,0.6l4,2.6c5.6,3.7,7.3,5.8,9.5,12.2c1.9,5.3,2,8.4,2,54.5c0,54.2,0.3,52-6.4,50.7c-3.7-0.7-8.2-5.2-9-8.9
		c-0.3-1.2-0.6-10.3-0.8-20.2c-0.3-17.6-0.3-18.1-3-22.1c-7.9-12.2-15.6-11.1-22.5,3.2c-1.9,4-4.1,7.5-4.9,7.8
		c-1.9,0.7-5.4-2.8-5.4-5.5c0-2.4-3.5-9.5-5.8-12c-4.5-4.7-9.8-4.8-15.2-0.3c-4.7,4-6.3,7.9-6.4,16.3c-0.1,5.9,0.4,8.3,2,11
		c2.6,4.5,9.2,8.2,14.8,8.2c5.8,0.1,7.1,2,5.5,8.5c-1.8,7.4-3.3,8.6-10.4,8c-12.8-1-22.4-10-26.4-25c-1.8-6.8-0.9-20.8,1.9-28.1
		c3-7.9,11-15.9,17.4-17.5c11.1-2.8,19.3-0.7,25.7,6.5l3.4,3.8l2.6-5c2.2-4.2,3.3-5.2,7-6.3c5.6-1.7,10-0.5,15.4,4.2l4,3.5l0.3-11.2
		c0.4-14.1-0.3-19-3.3-22.5l-2.3-2.7l-43.2-0.3l-43.2-0.3l0.8,2.8c0.4,1.5,1,25.4,1.1,53l0.3,50.2l-2.5,0.6
		c-4.7,1.2-10.7-2.3-12.8-7.6c-0.6-1.5-1.1-19.5-1.3-46.4c-0.2-31.2-0.7-44.7-1.5-46.8c-2.4-5.7-3-5.8-47.1-5.8h-40.3l0.2,36.8
		c0.1,20.2,0.5,40.4,0.8,44.9c0.6,7.8,0.7,8.2,3.4,9.1c2.8,1,16-1.2,17.1-2.8c0.3-0.4,1.9-1.4,3.7-2.3c6.6-3.4,15.8-12.2,18.7-18
		c2.4-4.8,2.8-6.4,2.2-10.3c-1.4-10.5-7.2-13.9-20.5-12.1c-2.1,0.3-2.6-0.3-3.8-4.7c-2-7.5-1.3-9.1,4.8-10.5c2.9-0.7,8.1-1,12-0.7
		c6.1,0.4,7.5,0.9,12.3,4.6c3,2.2,6.5,5.8,7.8,7.9c2.1,3.4,2.4,5,2.4,15.3c0,10.7-0.2,11.9-2.9,17.5c-4.6,9.3-15.6,19.6-26.9,25
		c-8.8,4.2-12.2,5.2-25.2,7.5c-12.4,2.1-15.4,2.1-18.3-0.4l-2.7-2.3l-0.5-48.8c-0.4-35.6-0.8-49.4-1.7-51c-1.9-3.4-6.1-4.5-15.8-4.2
		l-8.9,0.3l-0.3,42c-0.3,50.1,0.4,60.7,4.7,66.9c3.7,5.3,6.9,6.6,17.1,6.6c9.3,0,10.8,1.1,8.7,6.2c-2.6,6-4.9,7.3-14,7.5
		C123.2,599.8,118.1,599.5,116.5,599L116.5,599z M658.6,522.8c-0.3-2.3-0.8-8.1-1.1-12.8c-0.9-12.9-3.3-28.7-7-47.4
		c-1.9-9.3-3.2-17.9-2.9-19.1c0.9-3.5,22.9-24.5,37-35.2c14.8-11.3,23.8-17,37.2-23.7c13.4-6.7,27.9-11.7,40.2-14
		c13.1-2.5,33.4-2.6,42-0.2c14.9,4.1,27.6,12.2,40.6,26c8.1,8.6,19.4,23.2,19.4,25.2c0,0.6,1.3,2.6,2.8,4.3
		c2.9,3.2,18.8,35.4,19.4,38.9c0.6,3.7-2.9-0.7-7.8-6.2c-5.1-5.9-13.9-12.7-21.1-16.3c-18-9.1-44-8.4-72.9,2c-6,2.2-11.9,4.2-13,4.6
		s-2.2,0.9-2.5,1.2c-0.3,0.3-4,2.3-8.3,4.4c-23.7,11.4-59.2,36.2-86.9,60.6c-7.5,6.6-13.9,12.1-14.2,12.1S658.9,525.1,658.6,522.8
		L658.6,522.8z M624.5,381.9c-2.2-7.1-13.9-29-24-45.3c-3.3-5.3-6.7-11-7.7-12.7s-2.3-3.6-3.2-4.2s-2.4-3-3.6-5.2
		c-2-3.8-2-4.1-0.3-5.7c1.1-1.1,6.3-2.5,14.2-3.9c15.6-2.8,52.7-3.8,69-2c24.5,2.8,48.7,8.2,64.3,14.6c2.7,1.1,2.1,3.4-1,4.1
		c-8.4,1.9-21.4,6-29,9.1c-4.8,1.9-10.1,4-11.7,4.7c-6.2,2.4-29.2,16.8-34,21.3c-1.1,1-4.8,4.2-8.1,7.1s-9,8.6-12.5,12.7
		c-5,5.9-6.9,7.5-9.1,7.5C626,384,624.9,383.4,624.5,381.9z"/>
	<path class="st0" d="M622.3,696.3c0.3-0.8,0.9-2.3,1.3-3.2c0.7-1.9,1.9-2.3,2.8-0.9c0.3,0.5-0.6,1.9-2.1,3.2
		C622.8,696.7,622,697.1,622.3,696.3L622.3,696.3z"/>
	<path class="st1" d="M405.4,578c-1.2-0.5-2.5-1.5-3-2.2s-0.7-22-0.5-47.4c0.3-48.3,0-52.4-4-56.1c-1.9-1.7-4-1.9-19-2.2
		c-13.4-0.2-16.9-0.6-16.9-1.7c0-3.5-8-10.1-14-11.6c-1.4-0.3,25.2-0.7,59.1-0.8c48.3-0.1,61.7-0.4,62.1-1.4c1.1-3-1.5-10-5-13.7
		c-4.8-5-6.7-5.2-43.8-5.4l-28.8-0.1l-0.3-2.4c-0.7-4.7,0.8-8.6,3.8-10.4c2.5-1.5,6.6-1.8,27.2-2.3c34.3-0.8,45.4,1,54.2,8.8
		c6,5.3,7.4,8.1,8.9,18.6l1.3,8.7h122.5l-0.6,2.5c-2,8-6.5,10.3-21.8,10.8c-11.2,0.4-11.8,0.5-11.2,2.4c0.3,1.1,0.9,4,1.3,6.5
		l0.7,4.6l6.1,1.7c9.5,2.6,15,6.3,19.4,13.2c6,9.3,7.4,20.2,3.5,27.7c-1.7,3.2-5.8,6.4-10.5,8c-4.8,1.7-5.7,0.4-4.2-5.9
		c1.6-7,1.5-12.8-0.5-18.8c-2-6.2-5.8-10.1-10.7-10.8l-3.7-0.6v80.5l-3.2-0.6c-4.3-0.8-7.6-3.2-9.6-6.6c-1.5-2.6-2.2-2.8-9.8-3.4
		c-10.4-0.8-26.8-4.1-33.8-6.7c-15.3-5.8-24.8-22.8-23.5-41.8c0.6-8.5,4-15.2,11.3-22.1c4.2-3.9,6.7-5.4,13.1-7.4
		c7.3-2.3,20.6-4.7,34.7-6.2c6.2-0.7,6.2-0.8,4.8-6.8c-1.6-7,2.9-6.6-74.9-6.6c-66.7,0-70.3,0.1-69.5,1.7c0.5,1,1,21.4,1.1,45.4
		c0.3,42.8,0.3,43.7,2.3,44.3c2.2,0.7,10.4-1,15.9-3.3c9.3-3.9,20.6-13.5,24.3-20.7c2.8-5.5,2.2-15.4-1.2-19.1
		c-3.4-3.6-9.2-5-14.8-3.6c-2.5,0.6-4.6,1-4.8,0.8c-0.7-0.7-3.3-13.1-2.8-13.9c0.9-1.5,12-3.1,18.2-2.6c6.8,0.5,11.1,2.8,17,8.8
		c7.2,7.4,8.3,24,2.5,35.9c-6.4,13.1-19.9,24-36.3,29.3C426.8,576.9,409,579.5,405.4,578L405.4,578z"/>
	<path class="st2" d="M561.8,524.8L562,498h-5.9c-6.8,0-21.6,2.4-28.2,4.5c-5.5,1.8-12.6,8.6-14,13.5c-1.3,4.5-1.2,10.5,0.1,15.5
		c1.7,6.2,9.9,13.8,17.2,15.9c6.9,2,22.8,4.5,27.1,4.2l3-0.2L561.8,524.8z"/>
	<path class="st1" d="M658,525.5c0-1.4,0.2-2.5,0.4-2.5c0.2,0,0.6,1.1,0.9,2.5s0.1,2.5-0.4,2.5C658.4,528,658,526.9,658,525.5z"/>
	<path class="st0" d="M883.5,462.6c-3.3-5.2-3.5-6.4-1-5.6c0.7,0.2,5.4,11,5,11.3C887.3,468.4,885.6,465.9,883.5,462.6z"/>
	<path class="st1" d="M129.3,435.4c0.3-0.3,1.2-0.4,1.9-0.1c0.8,0.3,0.6,0.6-0.6,0.6C129.5,436,128.9,435.7,129.3,435.4z"/>
</g>
</svg>
