<?xml version="1.0" encoding="iso-8859-1"?>
<!-- Generator: Adobe Illustrator 19.0.0, SVG Export Plug-In . SVG Version: 6.00 Build 0)  -->
<svg version="1.1" id="Capa_1" xmlns="http://www.w3.org/2000/svg" xmlns:xlink="http://www.w3.org/1999/xlink" x="0px" y="0px"
	 viewBox="0 0 464 464" style="enable-background:new 0 0 464 464;" xml:space="preserve">
<path style="fill:#34495E;" d="M0,150.4h464v288H0V150.4z"/>
<path style="fill:#314559;" d="M104,150.4H0v288h464v-72H320C200.706,366.4,104,269.694,104,150.4z"/>
<g>
	<path style="fill:#E6EAEE;" d="M376,86.4c17.673,0,32,14.327,32,32v40l0,0h-64l0,0v-40C344,100.727,358.327,86.4,376,86.4z"/>
	<path style="fill:#E6EAEE;" d="M88,86.4c17.673,0,32,14.327,32,32v40l0,0H56l0,0v-40C56,100.727,70.327,86.4,88,86.4z"/>
</g>
<path style="fill:#80DCFF;" d="M0,150.4h464v48H0V150.4z"/>
<path style="fill:#5D6D7E;" d="M200,254.4h64v128h-64V254.4z"/>
<path style="fill:#4BBA6A;" d="M200,294.4h64v88h-64V294.4z"/>
<path style="fill:#FFD884;" d="M200,310.4h64v72h-64V310.4z"/>
<path style="fill:#FF7059;" d="M200,342.4h64v40h-64V342.4z"/>
<g>
	<circle style="fill:#AAB5BD;" cx="384" cy="278.4" r="48"/>
	<circle style="fill:#AAB5BD;" cx="80" cy="278.4" r="48"/>
</g>
<g>
	<path style="fill:#5D6D7E;" d="M408,270.4h-16v-16h-16v16h-16v16h16v16h16v-16h16V270.4z"/>
	<path style="fill:#5D6D7E;" d="M56,270.4h48v16H56V270.4z"/>
	<path style="fill:#5D6D7E;" d="M40,382.4h16v16H40V382.4z"/>
	<path style="fill:#5D6D7E;" d="M72,382.4h16v16H72V382.4z"/>
</g>
<g>
	<path style="fill:#FFD884;" d="M152,70.4h16v16h-16V70.4z"/>
	<path style="fill:#FFD884;" d="M296,70.4h16v16h-16V70.4z"/>
	<path style="fill:#FFD884;" d="M184,70.4h16v16h-16V70.4z"/>
	<path style="fill:#FFD884;" d="M264,70.4h16v16h-16V70.4z"/>
	<path style="fill:#FFD884;" d="M230.856,106.52l-13.712-8.24l16.728-27.88H216c-4.418,0-8-3.582-8-8c0-1.731,0.561-3.415,1.6-4.8
		l24-32l12.8,9.6L232,54.4h16c4.418,0.001,7.999,3.583,7.998,8.002c0,1.451-0.395,2.875-1.142,4.118L230.856,106.52z"/>
	<path style="fill:#FFD884;" d="M328,70.4h16v16h-16V70.4z"/>
	<path style="fill:#FFD884;" d="M120,70.4h16v16h-16V70.4z"/>
</g>
<g>
</g>
<g>
</g>
<g>
</g>
<g>
</g>
<g>
</g>
<g>
</g>
<g>
</g>
<g>
</g>
<g>
</g>
<g>
</g>
<g>
</g>
<g>
</g>
<g>
</g>
<g>
</g>
<g>
</g>
</svg>
