<svg id="Layer_1" height="512" viewBox="0 0 512 512" width="512" xmlns="http://www.w3.org/2000/svg" data-name="Layer 1"><path d="m490 121.81h-468a4 4 0 0 0 -4 4v38.95a4.005 4.005 0 0 0 4 4h468a4.005 4.005 0 0 0 4-4v-38.95a4 4 0 0 0 -4-4z" fill="#628db2"/><path d="m470.32 405.77h-428.64a18 18 0 0 0 -18 18v29.83h464.64v-29.83a18 18 0 0 0 -18-18z" fill="#628db2"/><path d="m461.94 98.7h-41.36a5.559 5.559 0 0 0 -5.53 5.58v17.53h52.42v-17.53a5.553 5.553 0 0 0 -5.53-5.58z" fill="#efcb7b"/><path d="m90.82 98.7h-41.36a5.559 5.559 0 0 0 -5.53 5.58v17.53h52.43v-17.53a5.561 5.561 0 0 0 -5.54-5.58z" fill="#efcb7b"/><path d="m369.42 72.28v11.44h-226.84v-11.44a13.826 13.826 0 0 1 13.77-13.88h199.3a13.826 13.826 0 0 1 13.77 13.88z" fill="#88ced8"/><path d="m142.58 83.72h226.84v38.09h-226.84z" fill="#a0eaea"/><path d="m457.94 90.3v8.4h-33.36v-8.4a9.748 9.748 0 0 1 9.71-9.78h13.94a9.748 9.748 0 0 1 9.71 9.78z" fill="#eadf53"/><path d="m86.82 90.3v8.4h-33.35v-8.4a9.741 9.741 0 0 1 9.71-9.78h13.93a9.741 9.741 0 0 1 9.71 9.78z" fill="#eadf53"/><path d="m43.93 168.76v.8 81.87h424.14v-81.87-.8z" fill="#e97288"/><path d="m43.93 330.9h424.14v74.87h-424.14z" fill="#e97288"/><path d="m43.93 251.43h424.14v79.47h-424.14z" fill="#a0eaea"/><circle cx="255.405" cy="288.425" fill="#5fcda4" r="76.845"/><path d="m278.28 285.63-31.84 51.36 3.38-38.32h-15.1l8.38-43.94h25.12l-10.25 29.9z" fill="#efcb7b"/><path d="m48 164.76v-38.95a4 4 0 0 1 4-4h-30a4 4 0 0 0 -4 4v38.95a4.005 4.005 0 0 0 4 4h30a4.005 4.005 0 0 1 -4-4z" fill="#577a93"/><path d="m71.68 405.77h-30a18 18 0 0 0 -18 18v29.83h30v-29.83a18 18 0 0 1 18-18z" fill="#577a93"/><path d="m73.93 168.76h-30v.8 81.87h30v-81.87z" fill="#cc697e"/><path d="m43.93 330.9h30v74.87h-30z" fill="#cc697e"/><path d="m43.93 251.43h30v79.47h-30z" fill="#8fccca"/><path d="m208.56 288.425a76.862 76.862 0 0 1 61.84-75.371 76.845 76.845 0 1 0 0 150.742 76.862 76.862 0 0 1 -61.84-75.371z" fill="#54af8a"/><g fill="#f4f8fc"><path d="m130.439 283.5h-10.878v-11.01a6 6 0 0 0 -12 0v11.01h-10.878a6 6 0 1 0 0 12h10.878v11.009a6 6 0 0 0 12 0v-11.009h10.878a6 6 0 1 0 0-12z"/><path d="m418.146 283.5h-33.756a6 6 0 0 0 0 12h33.756a6 6 0 0 0 0-12z"/></g></svg>