<svg id="Layer_1" enable-background="new 0 0 512 512" height="512" viewBox="0 0 512 512" width="512" xmlns="http://www.w3.org/2000/svg"><g><g><g><g><path d="m32 192h448v224h-448z" fill="#4b9641"/></g></g><g><g><path d="m480 192h-448c-8.837 0-16-7.163-16-16v-32c0-8.837 7.163-16 16-16h448c8.837 0 16 7.163 16 16v32c0 8.837-7.163 16-16 16z" fill="#555a6e"/></g></g><g><g><path d="m480 192h-160c-8.837 0-16-7.163-16-16v-32c0-8.837 7.163-16 16-16h160c8.837 0 16 7.163 16 16v32c0 8.837-7.163 16-16 16z" fill="#463c4b"/></g></g><g><g><path d="m480 448h-448c-8.837 0-16-7.163-16-16 0-8.837 7.163-16 16-16h448c8.837 0 16 7.163 16 16 0 8.837-7.163 16-16 16z" fill="#555a6e"/></g></g><g><g><path d="m480 448h-160c-8.837 0-16-7.163-16-16 0-8.837 7.163-16 16-16h160c8.837 0 16 7.163 16 16 0 8.837-7.163 16-16 16z" fill="#463c4b"/></g></g><g><g><path d="m32 208h288v208h-288z" fill="#91c83c"/></g></g><g><g><path d="m136 80h-48c-8.837 0-16 7.163-16 16v32h80v-32c0-8.837-7.163-16-16-16z" fill="#faa019"/></g></g><g><g><path d="m112 96h40v32h-40z" fill="#f06423"/></g></g><g><g><path d="m424 80h-48c-8.837 0-16 7.163-16 16v32h80v-32c0-8.837-7.163-16-16-16z" fill="#5ad7ff"/></g></g><g><g><path d="m400 96h40v32h-40z" fill="#23aae6"/></g></g><g><g><path d="m112 296h-16v-16c0-4.418-3.582-8-8-8-4.418 0-8 3.582-8 8v16h-16c-4.418 0-8 3.582-8 8 0 4.418 3.582 8 8 8h16v16c0 4.418 3.582 8 8 8 4.418 0 8-3.582 8-8v-16h16c4.418 0 8-3.582 8-8 0-4.418-3.582-8-8-8z" fill="#d7e6f0"/></g></g><g><g><path d="m288 312h-48c-4.418 0-8-3.582-8-8 0-4.418 3.582-8 8-8h48c4.418 0 8 3.582 8 8 0 4.418-3.582 8-8 8z" fill="#d7e6f0"/></g></g><g><g><path d="m136 80h-48v-8c0-4.418 3.582-8 8-8h32c4.418 0 8 3.582 8 8z" fill="#a5c3dc"/></g></g><g><g><path d="m424 80h-48v-8c0-4.418 3.582-8 8-8h32c4.418 0 8 3.582 8 8z" fill="#a5c3dc"/></g></g></g><path d="m215.391 300.938c-1.239-2.989-4.156-4.938-7.391-4.938h-20.9l12.49-37.47c1.173-3.521-.228-7.385-3.384-9.336-3.158-1.951-7.24-1.475-9.863 1.148l-48 48c-2.288 2.288-2.972 5.729-1.733 8.719s4.155 4.939 7.39 4.939h20.9l-12.49 37.47c-1.173 3.521.228 7.385 3.384 9.336 1.3.803 2.756 1.194 4.203 1.194 2.068 0 4.116-.8 5.66-2.343l48-48c2.288-2.288 2.972-5.729 1.734-8.719z" fill="#ffd205"/></g></svg>