<svg id="Capa_1" enable-background="new 0 0 510 510" height="512" viewBox="0 0 510 510" width="512" xmlns="http://www.w3.org/2000/svg" xmlns:xlink="http://www.w3.org/1999/xlink"><linearGradient id="lg1"><stop offset="0" stop-color="#f8f6f7"/><stop offset=".1788" stop-color="#f8f6f7"/><stop offset="1" stop-color="#e7e6f5"/></linearGradient><linearGradient id="SVGID_1_" gradientUnits="userSpaceOnUse" x1="34.797" x2="185.852" xlink:href="#lg1" y1="47.916" y2="47.916"/><linearGradient id="lg2"><stop offset="0" stop-color="#f8f6f7"/><stop offset="1" stop-color="#d1ceeb"/></linearGradient><linearGradient id="SVGID_2_" gradientUnits="userSpaceOnUse" x1="105.325" x2="174.325" xlink:href="#lg2" y1="47.916" y2="47.916"/><linearGradient id="SVGID_3_" gradientUnits="userSpaceOnUse" x1="324.148" x2="475.203" xlink:href="#lg1" y1="47.916" y2="47.916"/><linearGradient id="SVGID_4_" gradientUnits="userSpaceOnUse" x1="393.675" x2="462.675" xlink:href="#lg2" y1="47.916" y2="47.916"/><linearGradient id="SVGID_5_" gradientUnits="userSpaceOnUse" x1="5.794" x2="543.077" y1="274.933" y2="274.933"><stop offset="0" stop-color="#a2e62e"/><stop offset=".7542" stop-color="#09a76d"/><stop offset="1" stop-color="#017b4e"/></linearGradient><linearGradient id="SVGID_6_" gradientUnits="userSpaceOnUse" x1="174.667" x2="309.393" y1="282.933" y2="282.933"><stop offset="0" stop-color="#fff9df"/><stop offset=".593" stop-color="#ffe177"/><stop offset="1" stop-color="#feb137"/></linearGradient><linearGradient id="SVGID_7_" gradientUnits="userSpaceOnUse" x1="224" x2="329.906" y1="330.886" y2="330.886"><stop offset="0" stop-color="#ffe177"/><stop offset="1" stop-color="#feb137"/></linearGradient><linearGradient id="SVGID_8_" gradientUnits="userSpaceOnUse" x1="-1.397" x2="399.184" y1="274.933" y2="274.933"><stop offset="0" stop-color="#a2e62e"/><stop offset="1" stop-color="#02905d"/></linearGradient><linearGradient id="lg3"><stop offset="0" stop-color="#a79ba7"/><stop offset=".7487" stop-color="#7a6d79"/><stop offset="1" stop-color="#685e68"/></linearGradient><linearGradient id="SVGID_9_" gradientUnits="userSpaceOnUse" x1="78.099" x2="636.466" xlink:href="#lg3" y1="97.067" y2="97.067"/><linearGradient id="SVGID_10_" gradientUnits="userSpaceOnUse" x1="195" x2="341.123" xlink:href="#lg3" y1="97.067" y2="97.067"/><linearGradient id="SVGID_11_" gradientUnits="userSpaceOnUse" x1="78.099" x2="636.466" xlink:href="#lg3" y1="462.233" y2="462.233"/><linearGradient id="SVGID_12_" gradientUnits="userSpaceOnUse" x1="195" x2="341.123" xlink:href="#lg3" y1="462.233" y2="462.233"/><linearGradient id="SVGID_13_" gradientUnits="userSpaceOnUse" x1="71.244" x2="143.764" xlink:href="#lg1" y1="170.658" y2="170.658"/><linearGradient id="SVGID_14_" gradientUnits="userSpaceOnUse" x1="360.595" x2="433.115" xlink:href="#lg1" y1="170.658" y2="170.658"/><linearGradient id="SVGID_15_" gradientUnits="userSpaceOnUse" x1="362" x2="410.831" xlink:href="#lg2" y1="144.573" y2="144.573"/><g><g><path d="m185.852 78.066v-28.681c0-17.462-14.156-31.618-31.618-31.618h-87.819c-17.462 0-31.618 14.156-31.618 31.618v28.681z" fill="url(#SVGID_1_)"/><path d="m154.234 17.767h-40.02c17.462 0 31.618 14.156 31.618 31.618v28.681h40.02v-28.681c0-17.462-14.156-31.618-31.618-31.618z" fill="url(#SVGID_2_)"/></g><g><path d="m475.203 78.066v-28.681c0-17.462-14.156-31.618-31.618-31.618h-87.819c-17.462 0-31.618 14.156-31.618 31.618v28.681z" fill="url(#SVGID_3_)"/><path d="m443.585 17.767h-40.02c17.462 0 31.618 14.156 31.618 31.618v28.681h40.02v-28.681c0-17.462-14.156-31.618-31.618-31.618z" fill="url(#SVGID_4_)"/></g><path d="m34.797 97.067h440.406v355.733h-440.406z" fill="url(#SVGID_5_)"/><g><path d="m326.743 248.257h-40.589c-10.613 0-18.27-10.166-15.34-20.366l17.931-62.434c3.141-10.937-11.246-18.056-18.035-8.923l-100.476 135.165c-7.959 10.707-.317 25.91 13.024 25.91h40.589c10.613 0 18.27 10.166 15.34 20.366l-17.931 62.434c-3.141 10.937 11.246 18.056 18.035 8.923l100.476-135.165c7.958-10.707.316-25.91-13.024-25.91z" fill="url(#SVGID_6_)"/><path d="m326.743 248.257h-31.739c-19.305 36.703-57.802 61.737-102.153 61.737-8.472 0-16.728-.922-24.681-2.656 2.305 5.798 7.855 10.27 15.088 10.27h40.589c10.613 0 18.27 10.166 15.34 20.366l-17.931 62.434c-3.141 10.937 11.246 18.056 18.035 8.923l100.477-135.165c7.957-10.706.315-25.909-13.025-25.909z" fill="url(#SVGID_7_)"/></g><path d="m475.2 97.063v355.74h-40.02v-275.99c0-13.664-11.077-24.74-24.74-24.74h-375.64v-55.01z" fill="url(#SVGID_8_)"/><g><path d="m480 127.067h-450c-16.569 0-30-13.431-30-30 0-16.569 13.431-30 30-30h450c16.569 0 30 13.431 30 30 0 16.568-13.431 30-30 30z" fill="url(#SVGID_9_)"/><path d="m480 67.067h-40.02c16.569 0 30 13.431 30 30 0 16.569-13.431 30-30 30h40.02c16.569 0 30-13.431 30-30 0-16.569-13.431-30-30-30z" fill="url(#SVGID_10_)"/></g><g><path d="m480 492.233h-450c-16.569 0-30-13.431-30-30 0-16.569 13.431-30 30-30h450c16.569 0 30 13.431 30 30 0 16.569-13.431 30-30 30z" fill="url(#SVGID_11_)"/><path d="m480 432.233h-40.02c16.569 0 30 13.431 30 30 0 16.569-13.431 30-30 30h40.02c16.569 0 30-13.431 30-30 0-16.568-13.431-30-30-30z" fill="url(#SVGID_12_)"/></g><path d="m133.896 180.673h-47.143c-5.531 0-10.015-4.484-10.015-10.015s4.484-10.015 10.015-10.015h47.143c5.531 0 10.015 4.484 10.015 10.015s-4.484 10.015-10.015 10.015z" fill="url(#SVGID_13_)"/><path d="m423.247 160.644h-13.557v-13.557c0-5.531-4.484-10.015-10.015-10.015s-10.015 4.484-10.015 10.015v13.557h-13.557c-5.531 0-10.015 4.484-10.015 10.015s4.484 10.015 10.015 10.015h13.557v13.557c0 5.531 4.484 10.015 10.015 10.015s10.015-4.484 10.015-10.015v-13.557h13.557c5.531 0 10.015-4.484 10.015-10.015 0-5.532-4.485-10.015-10.015-10.015z" fill="url(#SVGID_14_)"/><path d="m399.675 137.072c-5.531 0-10.015 4.484-10.015 10.015v4.987h20.029v-4.987c.001-5.531-4.483-10.015-10.014-10.015z" fill="url(#SVGID_15_)"/></g></svg>