<?xml version="1.0" encoding="iso-8859-1"?>
<!-- Generator: Adobe Illustrator 19.0.0, SVG Export Plug-In . SVG Version: 6.00 Build 0)  -->
<svg version="1.1" id="Capa_1" xmlns="http://www.w3.org/2000/svg" xmlns:xlink="http://www.w3.org/1999/xlink" x="0px" y="0px"
	 viewBox="0 0 480 480" style="enable-background:new 0 0 480 480;" xml:space="preserve">
<path style="fill:#34495E;" d="M8,154.4h464v288H8V154.4z"/>
<path style="fill:#314559;" d="M112,154.4H8v288h464v-72H328C208.706,370.4,112,273.694,112,154.4z"/>
<g>
	<path style="fill:#E6EAEE;" d="M384,90.4c17.673,0,32,14.327,32,32v40l0,0h-64l0,0v-40C352,104.727,366.327,90.4,384,90.4z"/>
	<path style="fill:#E6EAEE;" d="M96,90.4c17.673,0,32,14.327,32,32v40l0,0H64l0,0v-40C64,104.727,78.327,90.4,96,90.4z"/>
</g>
<path style="fill:#80DCFF;" d="M8,154.4h464v48H8V154.4z"/>
<path style="fill:#5D6D7E;" d="M208,258.4h64v128h-64V258.4z"/>
<path style="fill:#4BBA6A;" d="M208,298.4h64v88h-64V298.4z"/>
<path style="fill:#FFD884;" d="M208,314.4h64v72h-64V314.4z"/>
<path style="fill:#FF7059;" d="M208,346.4h64v40h-64V346.4z"/>
<g>
	<circle style="fill:#AAB5BD;" cx="392" cy="282.4" r="48"/>
	<circle style="fill:#AAB5BD;" cx="88" cy="282.4" r="48"/>
</g>
<g>
	<path style="fill:#5D6D7E;" d="M416,274.4h-16v-16h-16v16h-16v16h16v16h16v-16h16V274.4z"/>
	<path style="fill:#5D6D7E;" d="M64,274.4h48v16H64V274.4z"/>
	<path style="fill:#5D6D7E;" d="M48,386.4h16v16H48V386.4z"/>
	<path style="fill:#5D6D7E;" d="M80,386.4h16v16H80V386.4z"/>
</g>
<g>
	<g>
		<path id="SVGCleanerId_0" style="fill:#FFD884;" d="M160,74.4h16v16h-16V74.4z"/>
	</g>
	<g>
		<path id="SVGCleanerId_1" style="fill:#FFD884;" d="M304,74.4h16v16h-16V74.4z"/>
	</g>
	<g>
		<path id="SVGCleanerId_2" style="fill:#FFD884;" d="M192,74.4h16v16h-16V74.4z"/>
	</g>
	<g>
		<path id="SVGCleanerId_3" style="fill:#FFD884;" d="M272,74.4h16v16h-16V74.4z"/>
	</g>
	<path style="fill:#FFD884;" d="M238.856,110.52l-13.72-8.24l16.736-27.88H224c-4.418,0-8-3.582-8-8c0-1.731,0.561-3.415,1.6-4.8
		l24-32l12.8,9.6L240,58.4h16c4.418,0.001,7.999,3.583,7.998,8.002c0,1.451-0.395,2.875-1.142,4.118L238.856,110.52z"/>
	<g>
		<path id="SVGCleanerId_4" style="fill:#FFD884;" d="M336,74.4h16v16h-16V74.4z"/>
	</g>
	<g>
		<path id="SVGCleanerId_5" style="fill:#FFD884;" d="M128,74.4h16v16h-16V74.4z"/>
	</g>
</g>
<path d="M472,146.4h-48v-24c0-22.091-17.909-40-40-40s-40,17.909-40,40v24H136v-24c0-22.091-17.909-40-40-40s-40,17.909-40,40v24H8
	c-4.418,0-8,3.582-8,8v288c0,4.418,3.582,8,8,8h464c4.418,0,8-3.582,8-8v-288C480,149.982,476.418,146.4,472,146.4z M360,122.4
	c0-13.255,10.745-24,24-24s24,10.745,24,24v24h-48V122.4z M72,122.4c0-13.255,10.745-24,24-24s24,10.745,24,24v24H72V122.4z
	 M16,162.4h448v32H16V162.4z M16,434.4v-224h448v224H16z"/>
<path d="M272,250.4h-64c-4.418,0-8,3.582-8,8v128c0,4.418,3.582,8,8,8h64c4.418,0,8-3.582,8-8v-128
	C280,253.982,276.418,250.4,272,250.4z M264,266.4v16h-48v-16H264z M216,314.4v-16h48v16H216z M264,330.4v16h-48v-16H264z
	 M216,378.4v-16h48v16H216z"/>
<path d="M392,226.4c-30.928,0-56,25.072-56,56s25.072,56,56,56s56-25.072,56-56C447.965,251.487,422.913,226.435,392,226.4z
	 M392,322.4c-22.091,0-40-17.909-40-40c0-22.091,17.909-40,40-40s40,17.909,40,40C431.974,304.48,414.08,322.374,392,322.4z"/>
<path d="M400,258.4h-16v16h-16v16h16v16h16v-16h16v-16h-16V258.4z"/>
<path d="M88,226.4c-30.928,0-56,25.072-56,56s25.072,56,56,56s56-25.072,56-56C143.965,251.487,118.913,226.435,88,226.4z M88,322.4
	c-22.091,0-40-17.909-40-40c0-22.091,17.909-40,40-40s40,17.909,40,40C127.974,304.48,110.08,322.374,88,322.4z"/>
<path d="M64,274.4h48v16H64V274.4z"/>
<path d="M48,386.4h16v16H48V386.4z"/>
<path d="M80,386.4h16v16H80V386.4z"/>
<path id="SVGCleanerId_0_1_" d="M160,74.4h16v16h-16V74.4z"/>
<path id="SVGCleanerId_1_1_" d="M304,74.4h16v16h-16V74.4z"/>
<path id="SVGCleanerId_2_1_" d="M192,74.4h16v16h-16V74.4z"/>
<path id="SVGCleanerId_3_1_" d="M272,74.4h16v16h-16V74.4z"/>
<path d="M238.856,110.52l24-40c2.275-3.787,1.05-8.702-2.738-10.978c-1.244-0.747-2.667-1.142-4.118-1.142h-16l14.4-19.2l-12.8-9.6
	l-24,32c-2.651,3.535-1.935,8.549,1.6,11.2c1.385,1.039,3.069,1.6,4.8,1.6h17.872l-16.736,27.88L238.856,110.52z"/>
<path id="SVGCleanerId_4_1_" d="M336,74.4h16v16h-16V74.4z"/>
<path id="SVGCleanerId_5_1_" d="M128,74.4h16v16h-16V74.4z"/>
<g>
</g>
<g>
</g>
<g>
</g>
<g>
</g>
<g>
</g>
<g>
</g>
<g>
</g>
<g>
</g>
<g>
</g>
<g>
</g>
<g>
</g>
<g>
</g>
<g>
</g>
<g>
</g>
<g>
</g>
</svg>
