<svg id="Layer_1" height="512" viewBox="0 0 512 512" width="512" xmlns="http://www.w3.org/2000/svg" data-name="Layer 1"><path d="m360.49 47.72s62.99 90.86-55.16 183.39a46.386 46.386 0 0 0 -13.43 14.95 21.3 21.3 0 0 0 .04 20.24 44.772 44.772 0 0 0 13.39 14.59c118.15 92.53 54.42 183.39 54.42 183.39h-208.24s-62.99-90.86 55.16-183.39a44.772 44.772 0 0 0 13.39-14.59 21.3 21.3 0 0 0 .04-20.24 46.386 46.386 0 0 0 -13.43-14.95c-118.15-92.53-55.16-183.39-55.16-183.39z" fill="#8fddef"/><path d="m260.46 376.78c0 3.67-1.85 18.08-5.52 18.08s-7.77-14.41-7.77-18.08a6.645 6.645 0 0 1 13.29 0z" fill="#ff8383"/><path d="m253.81 281.87a6.645 6.645 0 1 1 -6.64 6.65 6.653 6.653 0 0 1 6.64-6.65z" fill="#ff8383"/><path d="m253.81 326.01a6.645 6.645 0 1 1 -6.64 6.64 6.645 6.645 0 0 1 6.64-6.64z" fill="#ff8383"/><path d="m412.45 45.72h26.76v420.56h-26.76z" fill="#3d8cea"/><path d="m72.79 45.72h26.76v420.56h-26.76z" fill="#3d8cea"/><path d="m334.7 439.77a2.857 2.857 0 0 1 -2.48 4.25l-155.42 1.65a2.853 2.853 0 0 1 -2.56-4.2c15.05-27.68 45.54-46.61 80.7-46.61 34.44 0 64.39 18.16 79.76 44.91z" fill="#ff8383"/><g fill="#ffd47d"><path d="m451.85 313.79v.61a10.117 10.117 0 0 1 -10.11 10.12h-31.82a10.117 10.117 0 0 1 -10.11-10.12v-.61a10.117 10.117 0 0 1 10.11-10.12h31.82a10.117 10.117 0 0 1 10.11 10.12z"/><path d="m451.85 159.21v.61a10.117 10.117 0 0 1 -10.11 10.12h-31.82a10.117 10.117 0 0 1 -10.11-10.12v-.61a10.117 10.117 0 0 1 10.11-10.12h31.82a10.117 10.117 0 0 1 10.11 10.12z"/><path d="m112.19 313.79v.61a10.117 10.117 0 0 1 -10.11 10.12h-31.82a10.117 10.117 0 0 1 -10.11-10.12v-.61a10.117 10.117 0 0 1 10.11-10.12h31.82a10.117 10.117 0 0 1 10.11 10.12z"/><path d="m112.19 159.21v.61a10.117 10.117 0 0 1 -10.11 10.12h-31.82a10.117 10.117 0 0 1 -10.11-10.12v-.61a10.117 10.117 0 0 1 10.11-10.12h31.82a10.117 10.117 0 0 1 10.11 10.12z"/></g><path d="m295.56 311h-.01c-.08 0-.16.13-.24.08" fill="#bce892"/><rect fill="#b2694f" height="32" rx="15.39" width="405" x="53" y="464"/><rect fill="#b2694f" height="32" rx="15.39" width="405" x="53" y="16"/><path d="m236.67 280.75a44.1 44.1 0 0 0 13.39-14.52 21.232 21.232 0 0 0 .04-20.205 44.838 44.838 0 0 0 -13.43-14.792c-118.15-92.533-55.16-183.233-55.16-183.233h-30s-62.99 90.72 55.16 183.25a45.692 45.692 0 0 1 13.43 14.88 21.232 21.232 0 0 1 -.04 20.2 43.27 43.27 0 0 1 -13.39 14.432c-118.15 92.538-55.16 183.238-55.16 183.238h30s-62.99-90.72 55.16-183.25z" fill="#75bac6"/><path d="m338.51 131.63a4.541 4.541 0 0 1 4.51 5.17c-1.9 13.55-10.77 50.3-51.69 67.96-27.68 11.94-27.11 38.45-29.73 50.51a7.589 7.589 0 0 1 -12.14 4.26 7.465 7.465 0 0 1 -2.65-4.26c-2.62-12.06-2.05-38.57-29.73-50.51-40.91-17.66-49.79-54.41-51.69-67.96a4.541 4.541 0 0 1 4.51-5.17z" fill="#ff8383"/></svg>