<svg id="Capa_1" enable-background="new 0 0 512 512" height="512" viewBox="0 0 512 512" width="512" xmlns="http://www.w3.org/2000/svg"><g><g><path d="m329.002 30v452c0 16.57-13.43 30-30 30h-203.08c-16.57 0-30-13.43-30-30v-452c0-16.57 13.43-30 30-30h203.08c16.57 0 30 13.43 30 30z" fill="#a9cffc"/><path d="m329.002 140.9v59.92h-140.01c-11.04 0-20-8.95-20-20v-19.92c0-11.05 8.96-20 20-20z" fill="#7cbaf7"/><path d="m109.225 380.611v-162.296c0-11.957-9.693-21.65-21.65-21.65-11.957 0-21.65 9.693-21.65 21.65v162.296c0 11.957 9.693 21.65 21.65 21.65 11.957 0 21.65-9.693 21.65-21.65z" fill="#cbe1ff"/><path d="m109.225 338.45v-96.472c0-11.957-9.693-21.65-21.65-21.65-11.957 0-21.65 9.693-21.65 21.65v96.472c0 11.957 9.693 21.65 21.65 21.65 11.957 0 21.65-9.693 21.65-21.65z" fill="#e3f0ff"/><path d="m109.225 286.887v-15.411c0-11.957-9.693-21.65-21.65-21.65-11.957 0-21.65 9.693-21.65 21.65v15.411c0 11.957 9.693 21.65 21.65 21.65 11.957-.001 21.65-9.694 21.65-21.65z" fill="#f5faff"/><g><path d="m147.497 43.3h78.472c11.957 0 21.65-9.693 21.65-21.65 0-11.957-9.693-21.65-21.65-21.65h-78.472c-11.957 0-21.65 9.693-21.65 21.65 0 11.957 9.693 21.65 21.65 21.65z" fill="#cbe1ff"/><path d="m173.027 43.3h15.411c11.957 0 21.65-9.693 21.65-21.65 0-11.957-9.693-21.65-21.65-21.65h-15.411c-11.957 0-21.65 9.693-21.65 21.65 0 11.957 9.693 21.65 21.65 21.65z" fill="#e3f0ff"/></g><path d="m329.002 234.93v247.07c0 16.57-13.43 30-30 30h-203.08c-16.57 0-30-13.43-30-30v-60.49c14.99 3.25 30.55 4.97 46.52 4.97 111.48 0 203.43-83.61 216.56-191.55z" fill="#7cbaf7"/><path d="m329.002 327.2v154.8c0 16.57-13.43 30-30 30h-132.52c86-21.91 151.59-94.92 162.52-184.8z" fill="#48acff"/><g><circle cx="197.963" cy="152.537" fill="#cbe1ff" r="87.908"/><path d="m285.872 152.54c0 17.84-5.31 34.43-14.44 48.28h-82.44c-11.04 0-20-8.95-20-20v-19.92c0-11.05 8.96-20 20-20h96.11c.51 3.81.77 7.69.77 11.64z" fill="#a9cffc"/><g><g><path d="m197.963 223.43c-39.09 0-70.893-31.803-70.893-70.893s31.803-70.893 70.893-70.893 70.893 31.802 70.893 70.893-31.804 70.893-70.893 70.893zm0-131.785c-33.576 0-60.893 27.316-60.893 60.893s27.316 60.893 60.893 60.893 60.893-27.316 60.893-60.893c-.001-33.577-27.317-60.893-60.893-60.893z" fill="#a9cffc"/></g></g><path d="m268.852 152.54c0 18.63-7.23 35.62-19.04 48.28h-14.8c14.49-11.13 23.84-28.64 23.84-48.28 0-3.98-.38-7.87-1.12-11.64h10.16c.63 3.79.96 7.68.96 11.64z" fill="#7cbaf7"/><path d="m426.078 182.497h-237.084c-11.046 0-20-8.954-20-20v-19.919c0-11.046 8.954-20 20-20h237.084c11.046 0 20 8.954 20 20v19.919c0 11.046-8.954 20-20 20z" fill="#e3f0ff"/><path d="m197.654 142.299c0 10.892 8.829 19.721 19.721 19.721h125.819c10.892 0 19.721-8.829 19.721-19.721 0-10.892-8.829-19.721-19.721-19.721h-125.819c-10.891 0-19.721 8.829-19.721 19.721z" fill="#f5faff"/><path d="m291.007 122.578h-39.564c-10.892 0-19.721 8.829-19.721 19.721 0 10.892 8.829 19.721 19.721 19.721h39.564c10.892 0 19.721-8.829 19.721-19.721 0-10.892-8.83-19.721-19.721-19.721z" fill="#fff"/><path d="m383.03 122.578h22.49v59.919h-22.49z" fill="#a9cffc"/></g><path d="m233.781 338.066c0-20.335-17.185-36.656-37.825-35.233-17.33 1.195-31.407 15.176-32.711 32.498-1.049 13.934 5.994 26.32 16.918 32.95v42.735c0 10.106 8.192 18.298 18.298 18.298 10.106 0 18.298-8.192 18.298-18.298v-42.735c10.204-6.192 17.022-17.407 17.022-30.215z" fill="#706c64"/></g><g><g><g><circle cx="102.748" cy="27.845" fill="#038fbf" r="9.694"/><circle cx="102.748" cy="24.174" fill="#00addb" r="6.024"/></g><g><circle cx="293.137" cy="27.845" fill="#038fbf" r="9.694"/><circle cx="293.137" cy="24.174" fill="#00addb" r="6.024"/></g></g><g><g><circle cx="102.748" cy="484.155" fill="#038fbf" r="9.694"/><circle cx="102.748" cy="480.485" fill="#00addb" r="6.024"/></g><g><circle cx="293.137" cy="484.155" fill="#038fbf" r="9.694"/><circle cx="293.137" cy="480.485" fill="#00addb" r="6.024"/></g></g></g><path d="m233.782 338.07c0 12.8-6.82 24.02-17.02 30.21v42.74c0 5.05-2.05 9.62-5.36 12.93s-7.88 5.36-12.94 5.36c-10.11 0-18.3-8.19-18.3-18.29v-18.2c20.15-11.28 33.76-32.84 33.76-57.57 0-11.5-2.95-22.32-8.13-31.74 15.99 3.37 27.99 17.57 27.99 34.56z" fill="#595751"/></g></svg>