<svg height="512" viewBox="0 0 512 512" width="512" xmlns="http://www.w3.org/2000/svg"><path d="m184 16h240a32 32 0 0 1 32 32v448a0 0 0 0 1 0 0h-304a0 0 0 0 1 0 0v-448a32 32 0 0 1 32-32z" fill="#aac3d7"/><path d="m184 16h208a32 32 0 0 1 32 32v448a0 0 0 0 1 0 0h-272a0 0 0 0 1 0 0v-448a32 32 0 0 1 32-32z" fill="#d7e6e6"/><path d="m216 48h160a16 16 0 0 1 16 16v432a0 0 0 0 1 0 0h-192a0 0 0 0 1 0 0v-432a16 16 0 0 1 16-16z" fill="#3c3c3c"/><path d="m216 48h144a0 0 0 0 1 0 0v448a0 0 0 0 1 0 0h-160a0 0 0 0 1 0 0v-432a16 16 0 0 1 16-16z" fill="#f05555"/><rect fill="#e13741" height="208" rx="8" width="112" x="224" y="80"/><rect fill="#e13741" height="144" rx="8" width="112" x="224" y="320"/><path d="m200 496h-16v-432a16 16 0 0 1 16-16h16a16 16 0 0 0 -16 16z" fill="#aac3d7"/><circle cx="349.333" cy="253.333" fill="#3c3c3c" r="8"/><circle cx="362.667" cy="253.333" fill="#faa51e" r="16"/><circle cx="370.667" cy="253.333" fill="#f06423" r="8"/><circle cx="168" cy="256" fill="#6fa4d8" r="112"/><path d="m208 224h-16v-16a24 24 0 0 0 -48 0v16h-16v-16a40 40 0 0 1 80 0z" fill="#d7e6e6"/><rect fill="#555" height="104" rx="8" width="112" x="112" y="224"/><path d="m112 304v16a8 8 0 0 0 8 8h96a8 8 0 0 0 8-8v-16z" fill="#faa51e"/><g fill="#3c3c3c"><path d="m152 304h-16l-16 24h16z"/><path d="m184 304h-16l-16 24h16z"/><path d="m216 304h-16l-16 24h16z"/><path d="m184 256a16 16 0 1 0 -24 13.842v10.158a8 8 0 0 0 8 8 8 8 0 0 0 8-8v-10.158a15.98 15.98 0 0 0 8-13.842z"/></g></svg>