<svg height="512" viewBox="0 0 64 64" width="512" xmlns="http://www.w3.org/2000/svg"><g id="Flat"><g id="Stroke_copy_2" data-name="Stroke copy 2"><g><path d="m3 3h40v54h-40z" fill="#656b76"/><path d="m33 61-30-4v-54l30 4z" fill="#d0d8da"/><path d="m47 13h12v4h-12z" fill="#84d2f4"/><g fill="#f9e109"><path d="m47 17h4v4h-4z"/><path d="m51 17h4v4h-4z"/><path d="m55 17h4v4h-4z"/><path d="m47 21h4v4h-4z"/><path d="m51 21h4v4h-4z"/><path d="m55 21h4v4h-4z"/><path d="m47 25h4v4h-4z"/><path d="m51 25h4v4h-4z"/><path d="m55 25h4v4h-4z"/></g><g><rect fill="#84d2f4" height="24" rx="4" width="18" x="39" y="37"/><path d="m56 56a12 12 0 0 1 -12-12v-7h-1a4 4 0 0 0 -4 4v16a4 4 0 0 0 4 4h10a4 4 0 0 0 4-4v-1z" fill="#57b7eb"/><path d="m50.121 48.879a1 1 0 0 1 -.707-.293 2.047 2.047 0 0 0 -2.828 0 1 1 0 0 1 -1.414-1.414 4.093 4.093 0 0 1 5.656 0 1 1 0 0 1 -.707 1.707z" fill="#fcbc04"/><path d="m52.95 46.05a.993.993 0 0 1 -.707-.293 6 6 0 0 0 -8.486 0 1 1 0 0 1 -1.414-1.414 8 8 0 0 1 11.314 0 1 1 0 0 1 -.707 1.707z" fill="#f9e109"/><g fill="#fcbc04"><circle cx="48" cy="51" r="1"/><path d="m51 57h-5a1 1 0 0 1 0-2h5a1 1 0 0 1 0 2z"/><path d="m43.757 45.757c.109-.108.224-.208.339-.307a12.161 12.161 0 0 1 -.096-1.45v-.922a8.017 8.017 0 0 0 -1.657 1.265 1 1 0 0 0 1.414 1.414z"/></g></g><path d="m25 19-14-2v-6l14 2z" fill="#84d2f4"/><path d="m30.7 52.893a25 25 0 0 1 -21.7-24.781v-24.312l-6-.8v54l30 4v-7.8z" fill="#93999a"/><path d="m11 11v2.286l9.424 1.346a3 3 0 0 1 2.576 2.968v1.112l2 .288v-6z" fill="#57b7eb"/><path d="m58 20a2 2 0 0 1 -2-2v-1h-1v4h4v-1z" fill="#fcbc04"/><path d="m54 20a2 2 0 0 1 -2-2v-1h-1v4h4v-1z" fill="#fcbc04"/><path d="m50 20a2 2 0 0 1 -2-2v-1h-1v4h4v-1z" fill="#fcbc04"/><path d="m58 24a2 2 0 0 1 -2-2v-1h-1v4h4v-1z" fill="#fcbc04"/><path d="m54 24a2 2 0 0 1 -2-2v-1h-1v4h4v-1z" fill="#fcbc04"/><path d="m50 24a2 2 0 0 1 -2-2v-1h-1v4h4v-1z" fill="#fcbc04"/><path d="m58 28a2 2 0 0 1 -2-2v-1h-1v4h4v-1z" fill="#fcbc04"/><path d="m54 28a2 2 0 0 1 -2-2v-1h-1v4h4v-1z" fill="#fcbc04"/><path d="m50 28a2 2 0 0 1 -2-2v-1h-1v4h4v-1z" fill="#fcbc04"/><path d="m47 13v4h12v-4zm11 3h-8a2 2 0 0 1 -2-2h9a1 1 0 0 1 1 1z" fill="#57b7eb"/><path d="m53 34h-10v-2h9v-3h2v4a1 1 0 0 1 -1 1z" fill="#f9e109"/><path d="m54 13h-2v-3h-9v-2h10a1 1 0 0 1 1 1z" fill="#f9e109"/><path d="m26 38a1 1 0 0 1 -1-1v-3a1 1 0 0 1 2 0v3a1 1 0 0 1 -1 1z" fill="#57b7eb"/><circle cx="17.5" cy="24.5" fill="#f9e109" r="1.5"/><circle cx="26" cy="33" fill="#84d2f4" r="2"/></g></g></g></svg>