<svg id="Capa_1" enable-background="new 0 0 512 512" height="512" viewBox="0 0 512 512" width="512" xmlns="http://www.w3.org/2000/svg" xmlns:xlink="http://www.w3.org/1999/xlink"><linearGradient id="SVGID_1_" gradientUnits="userSpaceOnUse" x1="196" x2="196" y1="512" y2="0"><stop offset="0" stop-color="#5558ff"/><stop offset="1" stop-color="#00c0ff"/></linearGradient><linearGradient id="SVGID_2_" gradientUnits="userSpaceOnUse" x1="286" x2="286" y1="451" y2="61"><stop offset="0" stop-color="#addcff"/><stop offset=".5028" stop-color="#eaf6ff"/><stop offset="1" stop-color="#eaf6ff"/></linearGradient><g id="Door_Lock_2_"><g><g><path d="m234.54 113.397c2.666 4.702 7.646 7.603 13.052 7.603h68.408c8.291 0 15-6.709 15-15v-61c0-24.814-20.186-45-45-45h-180c-24.814 0-45 20.186-45 45v422c0 24.814 20.186 45 45 45h180c24.814 0 45-20.186 45-45v-301c0-8.291-6.709-15-15-15h-68.408c-5.405 0-10.386 2.9-13.052 7.603-7.939 14.033-22.354 22.397-38.54 22.397-24.814 0-45-20.186-45-45s20.186-45 45-45c16.186 0 30.601 8.364 38.54 22.397zm-68.54 22.603c0 16.538 13.447 30 30 30s30-13.462 30-30-13.447-30-30-30-30 13.462-30 30z" fill="url(#SVGID_1_)"/></g></g><g><g><path d="m136 301c-8.284 0-15 6.716-15 15s6.716 15 15 15 15-6.716 15-15-6.716-15-15-15zm60 0c-8.284 0-15 6.716-15 15s6.716 15 15 15 15-6.716 15-15-6.716-15-15-15zm60 0c-8.284 0-15 6.716-15 15s6.716 15 15 15 15-6.716 15-15-6.716-15-15-15zm-120 60c-8.284 0-15 6.716-15 15s6.716 15 15 15 15-6.716 15-15-6.716-15-15-15zm60 0c-8.284 0-15 6.716-15 15s6.716 15 15 15 15-6.716 15-15-6.716-15-15-15zm60 0c-8.284 0-15 6.716-15 15s6.716 15 15 15 15-6.716 15-15-6.716-15-15-15zm-120 60c-8.284 0-15 6.716-15 15s6.716 15 15 15 15-6.716 15-15-6.716-15-15-15zm60 0c-8.284 0-15 6.716-15 15s6.716 15 15 15 15-6.716 15-15-6.716-15-15-15zm60 0c-8.284 0-15 6.716-15 15s6.716 15 15 15 15-6.716 15-15-6.716-15-15-15zm150-330h-150.308c-13.872-18.706-36.02-30-59.692-30-41.353 0-75 33.647-75 75s33.647 75 75 75c23.672 0 45.82-11.294 59.692-30h150.308c24.814 0 45-20.186 45-45s-20.186-45-45-45zm-210 60c-8.284 0-15-6.716-15-15s6.716-15 15-15 15 6.716 15 15-6.716 15-15 15zm60 90h-120c-8.291 0-15 6.709-15 15s6.709 15 15 15h120c8.291 0 15-6.709 15-15s-6.709-15-15-15z" fill="url(#SVGID_2_)"/></g></g></g></svg>