<?xml version="1.0"?>
<svg xmlns="http://www.w3.org/2000/svg" xmlns:xlink="http://www.w3.org/1999/xlink" xmlns:svgjs="http://svgjs.com/svgjs" version="1.1" width="512" height="512" x="0" y="0" viewBox="0 0 500.106 500.106" style="enable-background:new 0 0 512 512" xml:space="preserve" class=""><g><circle xmlns="http://www.w3.org/2000/svg" cx="245" cy="250.053" fill="#ffffff00" r="245" data-original="#fec753" style="" class=""/><path xmlns="http://www.w3.org/2000/svg" d="m309.676 34.373h-128.754c-19.965 0-36.149 16.185-36.149 36.149v403.15c30.596 13.734 64.518 21.38 100.227 21.38 35.941 0 70.075-7.739 100.826-21.642v-402.887c0-19.965-16.185-36.15-36.15-36.15z" fill="#35528c" data-original="#35528c" style="" class=""/><path xmlns="http://www.w3.org/2000/svg" d="m345.826 125.475h-134.622v-55.631c0-17.578 12.548-32.219 29.174-35.47h-59.457c-19.965 0-36.149 16.185-36.149 36.149v403.15c20.77 9.324 43.077 15.832 66.432 19.056v-288.676h134.621v-78.578z" fill="#1f3a60" data-original="#1f3a60" style="" class=""/><circle xmlns="http://www.w3.org/2000/svg" cx="245.299" cy="373.65" fill="#0c1f35" r="56.546" data-original="#0c1f35" style="" class=""/><circle xmlns="http://www.w3.org/2000/svg" cx="245.299" cy="373.65" fill="#08d3cf" r="32.462" data-original="#08d3cf" style=""/><circle xmlns="http://www.w3.org/2000/svg" cx="245.299" cy="154.01" fill="#0c1f35" r="56.807" data-original="#0c1f35" style="" class=""/><path xmlns="http://www.w3.org/2000/svg" d="m471.309 183.069h-225.137c-15.904 0-28.797-12.893-28.797-28.797 0-15.904 12.893-28.797 28.797-28.797h225.138c15.904 0 28.797 12.893 28.797 28.797-.001 15.904-12.894 28.797-28.798 28.797z" fill="#1f3a60" data-original="#1f3a60" style="" class=""/><path xmlns="http://www.w3.org/2000/svg" d="m498.494 144.772c-3.926 11.234-14.611 19.297-27.185 19.297h-189.991c-5.394 0-9.924-4.299-9.943-9.693 0-.034 0-.069 0-.103 0-15.904 12.893-28.797 28.797-28.797h-54c-12.574 0-23.259 8.062-27.185 19.297v.001c-.505 1.447-.897 2.945-1.168 4.487-.013.075-.027.149-.04.224-.12.719-.215 1.446-.281 2.182-.01.115-.017.232-.026.348-.058.746-.096 1.497-.096 2.258 0 15.904 12.893 28.797 28.797 28.797h54 171.138c15.904 0 28.797-12.893 28.797-28.797-.002-3.331-.574-6.526-1.614-9.501z" fill="#132b47" data-original="#132b47" style=""/><g xmlns="http://www.w3.org/2000/svg" fill="#fff"><path d="m71.007 175.438c0 2.56-1.295 5.057-3.64 6.487-23.854 14.537-38.095 39.87-38.095 67.768s14.241 53.231 38.095 67.768c3.579 2.18 4.713 6.85 2.531 10.429-2.181 3.578-6.85 4.712-10.429 2.531-13.591-8.282-24.962-19.953-32.884-33.75-8.171-14.232-12.49-30.477-12.49-46.977s4.319-32.744 12.49-46.977c7.922-13.797 19.293-25.468 32.884-33.75 3.579-2.181 8.248-1.048 10.429 2.531.751 1.232 1.109 2.595 1.109 3.94z" fill="#ffffff" data-original="#ffffff" style="" class=""/><path d="m96.056 203.759c0 2.559-1.295 5.057-3.64 6.487-13.886 8.463-22.176 23.209-22.176 39.447s8.29 30.984 22.176 39.447c3.578 2.181 4.712 6.849 2.531 10.429-2.181 3.578-6.85 4.712-10.429 2.531-18.444-11.24-29.455-30.831-29.455-52.406s11.011-41.166 29.455-52.406c3.579-2.181 8.248-1.048 10.429 2.531.751 1.231 1.109 2.594 1.109 3.94z" fill="#ffffff" data-original="#ffffff" style="" class=""/><path d="m121.106 232.08c0 2.56-1.295 5.058-3.641 6.487-3.918 2.387-6.257 6.546-6.257 11.126 0 4.579 2.339 8.738 6.257 11.126 3.58 2.181 4.712 6.851 2.531 10.429-2.181 3.579-6.85 4.712-10.429 2.531-8.476-5.165-13.536-14.169-13.536-24.086s5.06-18.921 13.536-24.086c3.578-2.18 8.248-1.047 10.429 2.531.752 1.233 1.11 2.596 1.11 3.942z" fill="#ffffff" data-original="#ffffff" style="" class=""/></g></g></svg>
