<svg id="Capa_1" enable-background="new 0 0 512 512" height="512" viewBox="0 0 512 512" width="512" xmlns="http://www.w3.org/2000/svg"><g><g><g><g><path d="m297.434 512h-191.837c-15.651 0-28.339-12.688-28.339-28.339v-455.322c-.001-15.651 12.687-28.339 28.339-28.339h191.837c15.651 0 28.34 12.688 28.34 28.339v455.321c-.001 15.652-12.689 28.34-28.34 28.34z" fill="#a9cffc"/></g><g><path d="m325.773 280.51v203.15c0 15.65-12.69 28.34-28.34 28.34h-191.84c-15.65 0-28.34-12.69-28.34-28.34v-3.16c10.69 1.63 21.63 2.47 32.78 2.47 114.78 0 208.67-89.47 215.74-202.46z" fill="#7cbaf7"/></g><path d="m325.773 367.263h-128.022c-10.177 0-18.437 8.25-18.437 18.437v18.363c0 10.187 8.26 18.437 18.437 18.437h128.023v-55.237z" fill="#48acff"/><g><path d="m325.773 54.924v-26.585c0-15.651-12.688-28.339-28.339-28.339h-191.837c-15.652 0-28.34 12.688-28.34 28.339v26.584h248.516z" fill="#7cbaf7"/></g><g><g><g><circle cx="106.321" cy="27.845" fill="#038fbf" r="9.694"/><circle cx="106.321" cy="24.174" fill="#00addb" r="6.024"/></g><g><circle cx="296.71" cy="27.845" fill="#038fbf" r="9.694"/><circle cx="296.71" cy="24.174" fill="#00addb" r="6.024"/></g></g><g><g><circle cx="106.321" cy="484.155" fill="#038fbf" r="9.694"/><circle cx="106.321" cy="480.485" fill="#00addb" r="6.024"/></g><g><circle cx="296.71" cy="484.155" fill="#038fbf" r="9.694"/><circle cx="296.71" cy="480.485" fill="#00addb" r="6.024"/></g></g></g><g><path d="m77.257 54.924h248.516v77.469h-248.516z" fill="#52efff"/></g><g><path d="m260.469 54.924h-134.297c-10.963 0-19.851 8.888-19.851 19.851 0 10.963 8.888 19.851 19.851 19.851h134.297c10.963 0 19.851-8.888 19.851-19.851 0-10.964-8.888-19.851-19.851-19.851z" fill="#99faff"/></g><g><path d="m217.704 54.924h-54.848c-10.963 0-19.851 8.888-19.851 19.851 0 10.963 8.888 19.851 19.851 19.851h54.848c10.963 0 19.851-8.888 19.851-19.851 0-10.964-8.888-19.851-19.851-19.851z" fill="#d2fffe"/></g><g><g><path d="m116.959 423.695v-119.297c0-10.963-8.888-19.851-19.851-19.851-10.963 0-19.851 8.888-19.851 19.851v119.297c0 10.963 8.888 19.851 19.851 19.851 10.964 0 19.851-8.887 19.851-19.851z" fill="#cbe1ff"/></g><g><path d="m116.959 386.93v-54.848c0-10.963-8.888-19.851-19.851-19.851-10.963 0-19.851 8.888-19.851 19.851v54.848c0 10.963 8.888 19.851 19.851 19.851 10.964 0 19.851-8.887 19.851-19.851z" fill="#e3f0ff"/></g></g><g><path d="m234.939 0h-66.848c-10.963 0-19.851 8.888-19.851 19.851 0 10.963 8.888 19.851 19.851 19.851h66.848c10.963 0 19.851-8.888 19.851-19.851 0-10.963-8.887-19.851-19.851-19.851z" fill="#a9cffc"/></g><g><path d="m196.281 0h-12.486c-10.963 0-19.851 8.888-19.851 19.851 0 10.963 8.888 19.851 19.851 19.851h12.486c10.963 0 19.851-8.888 19.851-19.851 0-10.963-8.887-19.851-19.851-19.851z" fill="#cbe1ff"/></g></g><g><g fill="#038fbf"><path d="m181.049 186.203h-13.243c-5.303 0-9.602-4.299-9.602-9.602v-13.243c0-5.303 4.299-9.602 9.602-9.602h13.243c5.303 0 9.602 4.299 9.602 9.602v13.243c0 5.303-4.299 9.602-9.602 9.602z"/><path d="m227.363 186.203h-13.243c-5.303 0-9.602-4.299-9.602-9.602v-13.243c0-5.303 4.299-9.602 9.602-9.602h13.243c5.303 0 9.602 4.299 9.602 9.602v13.243c0 5.303-4.299 9.602-9.602 9.602z"/><path d="m181.049 231.518h-13.243c-5.303 0-9.602-4.299-9.602-9.602v-13.243c0-5.303 4.299-9.602 9.602-9.602h13.243c5.303 0 9.602 4.299 9.602 9.602v13.243c0 5.303-4.299 9.602-9.602 9.602z"/><path d="m227.363 231.518h-13.243c-5.303 0-9.602-4.299-9.602-9.602v-13.243c0-5.303 4.299-9.602 9.602-9.602h13.243c5.303 0 9.602 4.299 9.602 9.602v13.243c0 5.303-4.299 9.602-9.602 9.602z"/></g><path d="m281.539 276.833h-13.243c-5.303 0-9.602-4.299-9.602-9.602v-103.873c0-5.303 4.299-9.602 9.602-9.602h13.243c5.303 0 9.602 4.299 9.602 9.602v103.874c0 5.302-4.299 9.601-9.602 9.601z" fill="#52efff"/><path d="m291.141 241.36v-62.064c0-8.96-7.263-16.223-16.223-16.223-8.96 0-16.223 7.263-16.223 16.223v62.064c0 8.96 7.263 16.223 16.223 16.223 8.96 0 16.223-7.263 16.223-16.223z" fill="#99faff"/><path d="m291.141 204.05v-5.245c0-8.96-7.263-16.223-16.223-16.223-8.96 0-16.223 7.263-16.223 16.223v5.245c0 8.96 7.263 16.223 16.223 16.223 8.96.001 16.223-7.263 16.223-16.223z" fill="#d2fffe"/><g fill="#038fbf"><path d="m134.734 186.203h-13.243c-5.303 0-9.602-4.299-9.602-9.602v-13.243c0-5.303 4.299-9.602 9.602-9.602h13.243c5.303 0 9.602 4.299 9.602 9.602v13.243c0 5.303-4.299 9.602-9.602 9.602z"/><path d="m134.734 231.518h-13.243c-5.303 0-9.602-4.299-9.602-9.602v-13.243c0-5.303 4.299-9.602 9.602-9.602h13.243c5.303 0 9.602 4.299 9.602 9.602v13.243c0 5.303-4.299 9.602-9.602 9.602z"/><path d="m134.734 276.833h-13.243c-5.303 0-9.602-4.299-9.602-9.602v-13.243c0-5.303 4.299-9.602 9.602-9.602h13.243c5.303 0 9.602 4.299 9.602 9.602v13.243c0 5.303-4.299 9.602-9.602 9.602z"/></g><path d="m181.049 276.833h-13.243c-5.303 0-9.602-4.299-9.602-9.602v-13.243c0-5.303 4.299-9.602 9.602-9.602h13.243c5.303 0 9.602 4.299 9.602 9.602v13.243c0 5.303-4.299 9.602-9.602 9.602z" fill="#038fbf"/><path d="m227.363 276.833h-13.243c-5.303 0-9.602-4.299-9.602-9.602v-13.243c0-5.303 4.299-9.602 9.602-9.602h13.243c5.303 0 9.602 4.299 9.602 9.602v13.243c0 5.303-4.299 9.602-9.602 9.602z" fill="#038fbf"/></g></g><g><g><g><circle cx="206.02" cy="377.991" fill="#cbe1ff" r="81.039"/><path d="m287.06 377.994c0 16.446-4.895 31.739-13.312 44.507h-75.998c-10.177 0-18.437-8.251-18.437-18.437v-18.364c0-10.187 8.26-18.437 18.437-18.437h88.599c.471 3.512.711 7.089.711 10.731z" fill="#a9cffc"/><g><g><path d="m206.02 443.344c-36.035 0-65.353-29.317-65.353-65.353s29.317-65.353 65.353-65.353 65.353 29.317 65.353 65.353-29.317 65.353-65.353 65.353zm0-121.487c-30.952 0-56.134 25.182-56.134 56.134 0 30.953 25.182 56.135 56.134 56.135s56.134-25.182 56.134-56.135c.001-30.952-25.181-56.134-56.134-56.134z" fill="#a9cffc"/></g></g><path d="m271.37 377.994c0 17.174-6.665 32.836-17.552 44.507h-13.643c13.358-10.26 21.977-26.402 21.977-44.507 0-3.669-.35-7.255-1.032-10.73h9.366c.58 3.493.884 7.079.884 10.73z" fill="#7cbaf7"/><path d="m416.31 405.61h-218.557c-10.183 0-18.437-8.255-18.437-18.437v-18.363c0-10.183 8.255-18.437 18.437-18.437h218.557c10.183 0 18.437 8.255 18.437 18.437v18.363c0 10.182-8.255 18.437-18.437 18.437z" fill="#e3f0ff"/><path d="m205.736 368.553c0 10.041 8.139 18.18 18.18 18.18h115.987c10.041 0 18.18-8.139 18.18-18.18 0-10.041-8.139-18.18-18.18-18.18h-115.987c-10.04 0-18.18 8.139-18.18 18.18z" fill="#f5faff"/><path d="m291.794 350.373h-36.472c-10.041 0-18.18 8.139-18.18 18.18 0 10.04 8.139 18.18 18.18 18.18h36.472c10.041 0 18.18-8.139 18.18-18.18-.001-10.041-8.14-18.18-18.18-18.18z" fill="#fff"/><path d="m376.625 350.373h20.732v55.237h-20.732z" fill="#a9cffc"/></g></g></g><g><g><g><circle cx="206.02" cy="377.991" fill="#cbe1ff" r="81.039"/><path d="m287.06 377.994c0 16.446-4.895 31.739-13.312 44.507h-75.998c-10.177 0-18.437-8.251-18.437-18.437v-18.364c0-10.187 8.26-18.437 18.437-18.437h88.599c.471 3.512.711 7.089.711 10.731z" fill="#a9cffc"/><g><g><path d="m206.02 443.344c-36.035 0-65.353-29.317-65.353-65.353s29.317-65.353 65.353-65.353 65.353 29.317 65.353 65.353-29.317 65.353-65.353 65.353zm0-121.487c-30.952 0-56.134 25.182-56.134 56.134 0 30.953 25.182 56.134 56.134 56.134s56.134-25.182 56.134-56.134c.001-30.952-25.181-56.134-56.134-56.134z" fill="#a9cffc"/></g></g><path d="m271.37 377.994c0 17.174-6.665 32.836-17.552 44.507h-13.643c13.358-10.26 21.977-26.402 21.977-44.507 0-3.669-.35-7.255-1.032-10.73h9.366c.58 3.493.884 7.079.884 10.73z" fill="#7cbaf7"/><path d="m416.31 405.61h-218.557c-10.183 0-18.437-8.255-18.437-18.437v-18.363c0-10.183 8.255-18.437 18.437-18.437h218.557c10.183 0 18.437 8.255 18.437 18.437v18.363c0 10.182-8.255 18.437-18.437 18.437z" fill="#e3f0ff"/><path d="m205.736 368.553c0 10.041 8.139 18.18 18.18 18.18h115.987c10.041 0 18.18-8.139 18.18-18.18 0-10.04-8.139-18.18-18.18-18.18h-115.987c-10.04 0-18.18 8.139-18.18 18.18z" fill="#f5faff"/><path d="m291.794 350.373h-36.472c-10.041 0-18.18 8.139-18.18 18.18 0 10.041 8.139 18.18 18.18 18.18h36.472c10.041 0 18.18-8.139 18.18-18.18-.001-10.041-8.14-18.18-18.18-18.18z" fill="#fff"/><path d="m376.625 350.373h20.732v55.237h-20.732z" fill="#a9cffc"/></g></g></g><g fill="#0b78af"><path d="m144.333 253.99v13.24c0 5.3-4.3 9.6-9.6 9.6h-13.24c-5.3 0-9.6-4.3-9.6-9.6v-1.28c2.55 1.87 5.69 2.97 9.09 2.97 8.52 0 15.42-6.9 15.42-15.42 0-3.41-1.11-6.56-2.98-9.11h1.31c5.3 0 9.6 4.3 9.6 9.6z"/><path d="m190.647 253.99v13.24c0 5.3-4.3 9.6-9.6 9.6h-13.24c-5.3 0-9.6-4.3-9.6-9.6v-1.28c2.55 1.87 5.69 2.97 9.09 2.97 8.52 0 15.42-6.9 15.42-15.42 0-3.41-1.11-6.56-2.98-9.11h1.31c5.3 0 9.6 4.3 9.6 9.6z"/><path d="m236.962 253.99v13.24c0 5.3-4.3 9.6-9.6 9.6h-13.24c-5.3 0-9.6-4.3-9.6-9.6v-1.28c2.55 1.87 5.69 2.97 9.09 2.97 8.52 0 15.42-6.9 15.42-15.42 0-3.41-1.11-6.56-2.98-9.11h1.31c5.3 0 9.6 4.3 9.6 9.6z"/><path d="m144.333 208.675v13.24c0 5.3-4.3 9.6-9.6 9.6h-13.24c-5.3 0-9.6-4.3-9.6-9.6v-1.28c2.55 1.87 5.69 2.97 9.09 2.97 8.52 0 15.42-6.9 15.42-15.42 0-3.41-1.11-6.56-2.98-9.11h1.31c5.3 0 9.6 4.3 9.6 9.6z"/><path d="m190.647 208.675v13.24c0 5.3-4.3 9.6-9.6 9.6h-13.24c-5.3 0-9.6-4.3-9.6-9.6v-1.28c2.55 1.87 5.69 2.97 9.09 2.97 8.52 0 15.42-6.9 15.42-15.42 0-3.41-1.11-6.56-2.98-9.11h1.31c5.3 0 9.6 4.3 9.6 9.6z"/><path d="m236.962 208.675v13.24c0 5.3-4.3 9.6-9.6 9.6h-13.24c-5.3 0-9.6-4.3-9.6-9.6v-1.28c2.55 1.87 5.69 2.97 9.09 2.97 8.52 0 15.42-6.9 15.42-15.42 0-3.41-1.11-6.56-2.98-9.11h1.31c5.3 0 9.6 4.3 9.6 9.6z"/><path d="m144.333 163.359v13.24c0 5.3-4.3 9.6-9.6 9.6h-13.24c-5.3 0-9.6-4.3-9.6-9.6v-1.28c2.55 1.87 5.69 2.97 9.09 2.97 8.52 0 15.42-6.9 15.42-15.42 0-3.41-1.11-6.56-2.98-9.11h1.31c5.3 0 9.6 4.3 9.6 9.6z"/><path d="m190.647 163.359v13.24c0 5.3-4.3 9.6-9.6 9.6h-13.24c-5.3 0-9.6-4.3-9.6-9.6v-1.28c2.55 1.87 5.69 2.97 9.09 2.97 8.52 0 15.42-6.9 15.42-15.42 0-3.41-1.11-6.56-2.98-9.11h1.31c5.3 0 9.6 4.3 9.6 9.6z"/><path d="m236.962 163.359v13.24c0 5.3-4.3 9.6-9.6 9.6h-13.24c-5.3 0-9.6-4.3-9.6-9.6v-1.28c2.55 1.87 5.69 2.97 9.09 2.97 8.52 0 15.42-6.9 15.42-15.42 0-3.41-1.11-6.56-2.98-9.11h1.31c5.3 0 9.6 4.3 9.6 9.6z"/></g></g></svg>