<svg id="Capa_1" enable-background="new 0 0 512 512" height="512" viewBox="0 0 512 512" width="512" xmlns="http://www.w3.org/2000/svg"><g><path d="m294.306 512h-239.055c-5.234 0-9.477-4.243-9.477-9.477v-493.046c0-5.234 4.243-9.477 9.477-9.477h239.056c5.234 0 9.477 4.243 9.477 9.477v493.047c-.001 5.233-4.244 9.476-9.478 9.476z" fill="#80b4fb"/><path d="m294.306 0h-22.294c5.234 0 9.477 4.243 9.477 9.477v493.047c0 5.234-4.243 9.477-9.477 9.477h22.294c5.234 0 9.477-4.243 9.477-9.477v-493.047c0-5.234-4.243-9.477-9.477-9.477z" fill="#61a2f9"/><path d="m250.833 256h-152.109c-6.159 0-11.151-4.992-11.151-11.151v-195.524c0-6.159 4.992-11.151 11.151-11.151h152.109c6.159 0 11.151 4.992 11.151 11.151v195.524c0 6.159-4.993 11.151-11.151 11.151z" fill="#738b95"/><path d="m250.833 38.174h-24.797c6.159 0 11.151 4.992 11.151 11.151v195.524c0 6.158-4.993 11.151-11.151 11.151h24.797c6.158 0 11.151-4.993 11.151-11.151v-195.524c0-6.158-4.993-11.151-11.151-11.151z" fill="#617881"/><circle cx="174.779" cy="376.933" fill="#e7ecf1" r="51.41"/><path d="m431.673 405.872h-249.218c-15.983 0-28.939-12.957-28.939-28.939 0-15.983 12.957-28.939 28.939-28.939h249.218c15.983 0 28.939 12.957 28.939 28.939 0 15.983-12.957 28.939-28.939 28.939z" fill="#738b95"/><path d="m431.673 347.994h-23.899c15.983 0 28.939 12.956 28.939 28.939 0 15.983-12.956 28.939-28.939 28.939h23.899c15.983 0 28.939-12.957 28.939-28.939 0-15.983-12.957-28.939-28.939-28.939z" fill="#617881"/><path d="m225.733 122.139h-101.91c-4.833 0-8.751-3.918-8.751-8.751v-39.455c0-4.833 3.918-8.751 8.751-8.751h101.91c4.833 0 8.751 3.918 8.751 8.751v39.455c0 4.833-3.918 8.751-8.751 8.751z" fill="#cbe2ff"/><path d="m225.733 65.183h-21.263c4.833 0 8.751 3.918 8.751 8.751v39.455c0 4.833-3.918 8.751-8.751 8.751h21.263c4.833 0 8.751-3.918 8.751-8.751v-39.456c0-4.832-3.918-8.75-8.751-8.75z" fill="#bed8fb"/><g><g><path d="m129.896 162.343h-14.823c-4.27 0-7.731-3.461-7.731-7.731s3.461-7.731 7.731-7.731h14.823c4.27 0 7.731 3.461 7.731 7.731s-3.46 7.731-7.731 7.731z" fill="#e7ecf1"/></g><g><path d="m182.19 162.343h-14.823c-4.27 0-7.731-3.461-7.731-7.731s3.461-7.731 7.731-7.731h14.823c4.27 0 7.731 3.461 7.731 7.731s-3.46 7.731-7.731 7.731z" fill="#e7ecf1"/></g><g><path d="m234.484 162.343h-14.824c-4.27 0-7.731-3.461-7.731-7.731s3.461-7.731 7.731-7.731h14.824c4.27 0 7.731 3.461 7.731 7.731s-3.46 7.731-7.731 7.731z" fill="#e7ecf1"/></g></g><g><g><path d="m129.896 194.816h-14.823c-4.27 0-7.731-3.461-7.731-7.731s3.461-7.731 7.731-7.731h14.823c4.27 0 7.731 3.461 7.731 7.731s-3.46 7.731-7.731 7.731z" fill="#e7ecf1"/></g><g><path d="m182.19 194.816h-14.823c-4.27 0-7.731-3.461-7.731-7.731s3.461-7.731 7.731-7.731h14.823c4.27 0 7.731 3.461 7.731 7.731s-3.46 7.731-7.731 7.731z" fill="#e7ecf1"/></g><g><path d="m234.484 194.816h-14.824c-4.27 0-7.731-3.461-7.731-7.731s3.461-7.731 7.731-7.731h14.824c4.27 0 7.731 3.461 7.731 7.731s-3.46 7.731-7.731 7.731z" fill="#e7ecf1"/></g></g><g><g><path d="m129.896 227.289h-14.823c-4.27 0-7.731-3.461-7.731-7.731s3.461-7.731 7.731-7.731h14.823c4.27 0 7.731 3.461 7.731 7.731s-3.46 7.731-7.731 7.731z" fill="#e7ecf1"/></g><g><path d="m182.19 227.289h-14.823c-4.27 0-7.731-3.461-7.731-7.731s3.461-7.731 7.731-7.731h14.823c4.27 0 7.731 3.461 7.731 7.731s-3.46 7.731-7.731 7.731z" fill="#e7ecf1"/></g><g><path d="m234.484 227.289h-14.824c-4.27 0-7.731-3.461-7.731-7.731s3.461-7.731 7.731-7.731h14.824c4.27 0 7.731 3.461 7.731 7.731s-3.46 7.731-7.731 7.731z" fill="#e7ecf1"/></g></g><g><path d="m338.046 384.664h-61.964c-4.27 0-7.731-3.461-7.731-7.731s3.461-7.731 7.731-7.731h61.964c4.27 0 7.731 3.461 7.731 7.731s-3.461 7.731-7.731 7.731z" fill="#e7ecf1"/></g><g><g><path d="m456.219 286.17c-.54 0-1.087-.057-1.636-.175-4.175-.899-6.829-5.012-5.93-9.186 5.638-26.175-.193-50.251-15.999-66.056-15.804-15.804-39.88-21.636-66.056-15.998-4.171.896-8.286-1.755-9.186-5.93-.899-4.174 1.756-8.287 5.93-9.186 31.403-6.766 60.657.59 80.247 20.18 19.59 19.591 26.946 48.84 20.181 80.247-.782 3.624-3.988 6.104-7.551 6.104z" fill="#80e29d"/></g><g><path d="m427.445 286.999c-.54 0-1.087-.057-1.636-.175-4.174-.899-6.829-5.012-5.93-9.186 3.739-17.357-.073-33.269-10.457-43.654-10.385-10.385-26.298-14.195-43.654-10.456-4.172.899-8.286-1.755-9.186-5.93-.899-4.174 1.756-8.287 5.93-9.186 22.588-4.865 43.674.47 57.844 14.639 14.168 14.17 19.504 35.253 14.639 57.843-.781 3.625-3.987 6.105-7.55 6.105z" fill="#80e29d"/></g><g><path d="m397.42 287.865c-.54 0-1.087-.057-1.636-.175-4.175-.899-6.829-5.012-5.93-9.186 1.757-8.156.052-15.546-4.677-20.275-4.729-4.73-12.121-6.436-20.274-4.676-4.18.897-8.287-1.755-9.187-5.929-.899-4.175 1.756-8.287 5.929-9.187 13.39-2.884 25.95.344 34.466 8.858 8.514 8.514 11.742 21.076 8.859 34.465-.782 3.624-3.987 6.105-7.55 6.105z" fill="#80e29d"/></g><circle cx="353.792" cy="289.614" fill="#86f1a7" r="15.746"/></g><g><path d="m188.056 478.292h-26.555c-4.27 0-7.731-3.461-7.731-7.731s3.461-7.731 7.731-7.731h26.555c4.27 0 7.731 3.461 7.731 7.731s-3.46 7.731-7.731 7.731z" fill="#86f1a7"/></g></g></svg>