<svg id="Layer_1" enable-background="new 0 0 128 128" height="512" viewBox="0 0 128 128" width="512" xmlns="http://www.w3.org/2000/svg"><path d="m105.398 75.909c-2.434-2.215-5.585-3.435-8.874-3.435h-13.274v-11.224h6.25c2.206 0 4-1.794 4-4v-40c0-2.206-1.794-4-4-4h-47c-2.206 0-4 1.794-4 4v40c0 2.206 1.794 4 4 4h6.25v40.25c0 9.512 7.738 17.25 17.25 17.25s17.25-7.738 17.25-17.25v-17.364h9.502c2.813 0 5.506 1.043 7.584 2.937l3.073 2.798c1.076.98 2.484 1.52 3.93 1.52.182 0 .364-.009.547-.026 1.631-.154 3.134-.999 4.123-2.318 1.778-2.37 1.382-5.857-.903-7.938z" fill="#e6e7e8"/><path d="m32.151 37.065c.032-2.036.544-3.96 1.521-5.717.774-1.391.439-3.077-.87-4.065-.705-.534-1.606-.737-2.472-.554-.882.184-1.642.744-2.086 1.535-1.474 2.628-2.258 5.502-2.332 8.557l-.005.436c0 .045.002.09.008.134.088 3.005.871 5.846 2.329 8.444.444.791 1.204 1.352 2.086 1.535.208.044.418.065.628.065.659 0 1.308-.214 1.84-.615l.073-.055c.001-.002.002-.003.004-.004 1.235-.932 1.571-2.618.798-4.01-.977-1.757-1.489-3.681-1.522-5.686z" fill="#e6e7e8"/><path d="m22.995 37.06c.035-3.748 1.052-7.421 2.938-10.623.824-1.396.458-3.15-.852-4.081l-.076-.054c-.701-.498-1.588-.682-2.433-.503-.834.178-1.56.696-1.991 1.425-2.427 4.1-3.75 8.8-3.826 13.6l-.004.436c0 .038.002.076.006.113.091 4.764 1.412 9.431 3.824 13.503.432.729 1.157 1.248 1.991 1.425.208.045.419.066.63.066.645 0 1.292-.207 1.878-.623 1.31-.93 1.676-2.684.853-4.081-1.886-3.202-2.903-6.875-2.938-10.603z" fill="#e6e7e8"/><path d="m14.159 37.057c.037-5.596 1.613-11.045 4.558-15.758.856-1.371.497-3.181-.895-4.175-.689-.493-1.563-.677-2.392-.514-.831.165-1.565.672-2.014 1.39-3.516 5.634-5.417 12.142-5.497 18.832v.447c.08 6.679 1.981 13.187 5.499 18.82.447.718 1.181 1.224 2.012 1.39.198.039.399.059.6.059.638 0 1.269-.197 1.793-.572l.075-.054c1.316-.938 1.676-2.749.82-4.12-2.945-4.715-4.522-10.163-4.559-15.745z" fill="#e6e7e8"/><path d="m99.849 37.034c-.032 2.036-.545 3.96-1.522 5.719-.773 1.391-.438 3.077.798 4.009l.073.055c.535.405 1.185.619 1.845.619.209 0 .419-.021.627-.065.882-.184 1.642-.744 2.086-1.535 1.457-2.599 2.24-5.438 2.329-8.442.006-.045.008-.09.008-.136l-.005-.449c-.074-3.041-.858-5.915-2.332-8.543-.444-.791-1.204-1.352-2.086-1.535-.865-.182-1.767.021-2.545.609-1.236.933-1.571 2.619-.797 4.01.977 1.755 1.488 3.679 1.521 5.684z" fill="#e6e7e8"/><path d="m115.248 37.259-.004-.442c-.076-4.793-1.399-9.493-3.826-13.593-.432-.729-1.157-1.247-1.991-1.425-.842-.179-1.73.004-2.43.501l-.076.054c-.001.001-.002.002-.003.002-1.31.931-1.676 2.685-.852 4.081 1.887 3.202 2.903 6.875 2.938 10.604-.035 3.748-1.052 7.421-2.938 10.622-.823 1.397-.457 3.151.928 4.135.525.373 1.155.57 1.793.57.213 0 .428-.022.64-.067.834-.177 1.56-.696 1.991-1.425 2.411-4.071 3.733-8.738 3.824-13.502.004-.038.006-.077.006-.115z" fill="#e6e7e8"/><path d="m124.081 36.82c-.08-6.679-1.981-13.187-5.498-18.82-.448-.718-1.183-1.225-2.014-1.39-.83-.166-1.703.021-2.468.568-1.315.939-1.675 2.749-.818 4.12 2.944 4.713 4.521 10.162 4.558 15.744-.037 5.596-1.613 11.044-4.559 15.759-.855 1.371-.496 3.182.82 4.121l.075.053c.524.375 1.155.572 1.793.572.2 0 .401-.02.6-.059.831-.166 1.564-.672 2.012-1.39 3.517-5.632 5.419-12.141 5.501-18.837z" fill="#e6e7e8"/><path d="m85.5 10.25h-47c-1.657 0-3 1.343-3 3v40c0 1.657 1.343 3 3 3h47c1.657 0 3-1.343 3-3v-40c0-1.657-1.343-3-3-3z" fill="#fa759e"/><path d="m70.709 79.179c-1.665 3.209-5.011 5.405-8.876 5.405-5.523 0-10-4.477-10-10s4.477-10 10-10c3.636 0 6.809 1.947 8.559 4.849h7.857v-13.183h-32.5v41.25c0 8.975 7.275 16.25 16.25 16.25 8.975 0 16.25-7.275 16.25-16.25v-18.321z" fill="#0089ef"/><path d="m79.5 15.25h-35c-1.104 0-2 .896-2 2v8c0 1.104.896 2 2 2h35c1.105 0 2-.896 2-2v-8c0-1.104-.895-2-2-2z" fill="#d4fbff"/><path d="m51.5 15.25-6 12h5l6-12z" fill="#fff"/><path d="m52.5 27.25h2l6-12h-2z" fill="#fff"/><path d="m68.5 15.25-6 12h7l6-12z" fill="#fff"/><path d="m42.5 31.917h7v7h-7z" fill="#ffd7e5"/><path d="m58.5 31.917h7v7h-7z" fill="#ffd7e5"/><path d="m74.5 31.917h7v7h-7z" fill="#ffd7e5"/><path d="m42.5 43.917h7v7h-7z" fill="#ffd7e5"/><path d="m58.5 43.917h7v7h-7z" fill="#ffd7e5"/><path d="m74.5 43.917h7v7h-7z" fill="#ffd7e5"/><path d="m106.461 77.814-5.707-5.197c-2.251-2.05-5.185-3.185-8.229-3.185h-22.132c-1.75-2.902-4.923-4.849-8.559-4.849-5.523 0-10 4.477-10 10s4.477 10 10 10c3.865 0 7.211-2.196 8.876-5.405h18.043c3.044 0 5.978 1.136 8.229 3.185l3.073 2.798c2.107 1.918 5.438 1.644 7.19-.691 1.526-2.035 1.098-4.942-.784-6.656z" fill="#6dc9f7"/><path d="m28.273 41.964-.073.055c-1.016.767-2.46.438-3.083-.673-1.382-2.464-2.135-5.213-2.204-8.079h-.005l.005-.435c.069-2.866.822-5.615 2.204-8.079.623-1.11 2.068-1.44 3.083-.672l.073.055c.847.64 1.042 1.798.525 2.726-1.049 1.886-1.613 3.992-1.648 6.187.035 2.195.599 4.301 1.648 6.188.517.929.323 2.087-.525 2.727z" fill="#6dc9f7"/><path d="m20.503 19.171c.884.628 1.121 1.823.57 2.758-1.983 3.365-3.04 7.17-3.078 11.121.037 3.951 1.094 7.756 3.078 11.12.551.934.314 2.13-.57 2.758l-.076.054c-.984.699-2.369.422-2.984-.616-2.348-3.965-3.613-8.444-3.687-13.098h-.004l.004-.435c.074-4.653 1.339-9.133 3.687-13.099.615-1.038 2-1.315 2.984-.616z" fill="#6dc9f7"/><path d="m13.317 52.108-.076.054c-.975.696-2.34.425-2.975-.592-3.43-5.494-5.269-11.77-5.347-18.303h-.002l.003-.435c.078-6.533 1.916-12.809 5.347-18.303.635-1.017 2-1.288 2.975-.592l.076.054c.889.635 1.131 1.85.552 2.777-3.049 4.882-4.67 10.468-4.71 16.281.04 5.813 1.66 11.399 4.71 16.282.578.927.336 2.143-.553 2.777z" fill="#6dc9f7"/><path d="m95.727 41.964.073.055c1.016.767 2.46.438 3.083-.673 1.382-2.464 2.135-5.213 2.204-8.079h.005l-.005-.435c-.069-2.866-.822-5.615-2.204-8.079-.623-1.11-2.068-1.44-3.083-.672l-.073.055c-.847.64-1.042 1.798-.525 2.726 1.049 1.886 1.613 3.992 1.648 6.187-.035 2.195-.599 4.301-1.648 6.188-.517.929-.323 2.087.525 2.727z" fill="#6dc9f7"/><path d="m103.498 19.171c-.884.628-1.121 1.823-.57 2.758 1.983 3.365 3.04 7.17 3.078 11.121-.037 3.951-1.094 7.756-3.078 11.12-.551.934-.314 2.13.57 2.758l.076.054c.984.699 2.369.422 2.984-.616 2.348-3.965 3.613-8.444 3.687-13.098h.004l-.004-.435c-.074-4.653-1.339-9.133-3.687-13.099-.615-1.038-2-1.315-2.984-.616z" fill="#6dc9f7"/><path d="m110.683 52.108.076.054c.975.696 2.34.425 2.975-.592 3.43-5.494 5.269-11.77 5.347-18.303h.003l-.003-.435c-.078-6.533-1.916-12.809-5.347-18.303-.635-1.017-2-1.288-2.975-.592l-.076.054c-.889.635-1.131 1.85-.552 2.777 3.049 4.882 4.67 10.468 4.71 16.281-.04 5.813-1.66 11.399-4.71 16.282-.579.927-.337 2.143.552 2.777z" fill="#6dc9f7"/><g fill="#3a2c60"><path d="m63.25 27.25c0-.553-.447-1-1-1h-5.583c-.553 0-1 .447-1 1s.447 1 1 1h5.583c.553 0 1-.447 1-1z"/><path d="m44.5 28.25h7.75c.553 0 1-.447 1-1s-.447-1-1-1h-7.75c-.552 0-1-.448-1-1v-8c0-.552.448-1 1-1h35c.552 0 1 .448 1 1v8c0 .552-.448 1-1 1h-13c-.553 0-1 .447-1 1s.447 1 1 1h13c1.654 0 3-1.346 3-3v-8c0-1.654-1.346-3-3-3h-35c-1.654 0-3 1.346-3 3v8c0 1.654 1.346 3 3 3z"/><path d="m66.271 95.021c0-2.657-2.426-4.747-5.184-4.176-1.648.341-2.963 1.695-3.278 3.348-.322 1.691.368 3.22 1.549 4.159l-.538 7.526c-.052.734.529 1.359 1.265 1.359h3.831c.736 0 1.318-.625 1.265-1.359l-.538-7.526c.984-.783 1.628-1.977 1.628-3.331z"/><path d="m42.5 39.917h7c.553 0 1-.447 1-1v-7c0-.553-.447-1-1-1h-7c-.553 0-1 .447-1 1v7c0 .553.447 1 1 1zm1-7h5v5h-5z"/><path d="m65.5 30.917h-7c-.553 0-1 .447-1 1v7c0 .553.447 1 1 1h7c.553 0 1-.447 1-1v-7c0-.553-.447-1-1-1zm-1 7h-5v-5h5z"/><path d="m81.5 30.917h-7c-.553 0-1 .447-1 1v7c0 .553.447 1 1 1h7c.553 0 1-.447 1-1v-7c0-.553-.447-1-1-1zm-1 7h-5v-5h5z"/><path d="m50.5 50.917v-7c0-.553-.447-1-1-1h-7c-.553 0-1 .447-1 1v7c0 .553.447 1 1 1h7c.553 0 1-.447 1-1zm-2-1h-5v-5h5z"/><path d="m65.5 42.917h-7c-.553 0-1 .447-1 1v7c0 .553.447 1 1 1h7c.553 0 1-.447 1-1v-7c0-.553-.447-1-1-1zm-1 7h-5v-5h5z"/><path d="m81.5 42.917h-7c-.553 0-1 .447-1 1v7c0 .553.447 1 1 1h7c.553 0 1-.447 1-1v-7c0-.553-.447-1-1-1zm-1 7h-5v-5h5z"/><path d="m101.398 71.909c-2.434-2.215-5.585-3.435-8.874-3.435h-13.274v-11.224h6.25c2.206 0 4-1.794 4-4v-40c0-2.206-1.794-4-4-4h-47c-2.206 0-4 1.794-4 4v40c0 2.206 1.794 4 4 4h6.25v40.25c0 9.512 7.738 17.25 17.25 17.25s17.25-7.738 17.25-17.25v-17.364h9.502c2.813 0 5.506 1.043 7.584 2.937l3.073 2.798c1.077.98 2.484 1.52 3.93 1.52.183 0 .365-.009.548-.026 1.631-.154 3.133-.999 4.122-2.318 1.778-2.37 1.382-5.857-.903-7.938zm-64.898-18.659v-40c0-1.103.897-2 2-2h47c1.103 0 2 .897 2 2v40c0 1.103-.897 2-2 2h-7.25-32.5-7.25c-1.103 0-2-.897-2-2zm40.75 44.25c0 8.409-6.841 15.25-15.25 15.25s-15.25-6.841-15.25-15.25v-40.25h30.5v11.225h-6.332c-2.044-3.047-5.401-4.849-9.085-4.849-6.042 0-10.957 4.915-10.957 10.957s4.915 10.957 10.957 10.957c3.907 0 7.472-2.056 9.44-5.404h5.977zm29.227-13.604c-.676.901-1.66 1.455-2.771 1.561-1.093.102-2.192-.262-3.008-1.003l-3.073-2.798c-2.432-2.215-5.583-3.435-8.873-3.435h-18.043c-.357 0-.686.199-.85.516-1.564 3.016-4.64 4.889-8.026 4.889-4.986 0-9.043-4.057-9.043-9.043s4.057-9.043 9.043-9.043c3.19 0 6.083 1.64 7.74 4.386.173.288.483.463.819.463h22.132c2.812 0 5.505 1.043 7.585 2.937l5.707 5.197c1.564 1.423 1.854 3.784.661 5.373z"/><path d="m28.151 33.065c.032-2.036.544-3.96 1.521-5.717.774-1.391.439-3.077-.87-4.065-.705-.534-1.606-.737-2.472-.554-.882.184-1.642.744-2.086 1.535-1.474 2.628-2.258 5.502-2.332 8.557l-.005.436c0 .045.002.09.008.134.088 3.005.871 5.846 2.329 8.444.444.791 1.204 1.352 2.086 1.535.208.044.418.065.628.065.659 0 1.308-.214 1.84-.615l.073-.055c.001-.002.002-.003.004-.004 1.235-.932 1.571-2.618.798-4.01-.977-1.757-1.489-3.681-1.522-5.686zm-.48 8.101-.073.055c-.248.187-.553.256-.857.192-.315-.066-.59-.27-.751-.557-1.313-2.34-2.011-4.901-2.076-7.613-.001-.021-.002-.042-.004-.063l.004-.323c.065-2.712.764-5.273 2.076-7.613.161-.287.436-.49.751-.557.306-.063.608.005.931.248.432.325.538.932.254 1.441-1.139 2.049-1.735 4.289-1.773 6.689.038 2.37.635 4.61 1.774 6.658.282.511.175 1.118-.256 1.443z"/><path d="m18.995 33.06c.035-3.748 1.052-7.421 2.939-10.623.823-1.396.456-3.151-.853-4.081l-.076-.054c-.702-.498-1.59-.683-2.434-.502-.834.177-1.559.696-1.989 1.424-2.427 4.099-3.751 8.799-3.827 13.6l-.004.436c0 .038.002.076.006.113.091 4.764 1.412 9.431 3.824 13.503.432.729 1.157 1.248 1.991 1.425.208.045.419.066.629.066.646 0 1.294-.207 1.88-.623 1.309-.93 1.675-2.685.852-4.081-1.886-3.202-2.903-6.875-2.938-10.603zm.853 13.106c-.247.176-.559.24-.859.178-.292-.063-.536-.235-.686-.488-2.25-3.798-3.477-8.156-3.547-12.604 0-.021-.002-.043-.003-.064l.003-.34c.07-4.446 1.298-8.805 3.548-12.605.149-.251.393-.425.685-.486.301-.066.612.002.862.179l.073.052c.455.323.579.94.288 1.435-2.066 3.503-3.179 7.521-3.217 11.639.038 4.098 1.15 8.115 3.216 11.618.291.492.168 1.109-.363 1.486z"/><path d="m10.159 33.057c.038-5.598 1.614-11.047 4.558-15.758.857-1.372.498-3.182-.895-4.175-.689-.493-1.563-.679-2.392-.514-.83.165-1.565.672-2.013 1.39-3.517 5.633-5.417 12.141-5.497 18.825l-.003.436c0 .032.001.064.004.096.094 6.652 1.994 13.132 5.497 18.743.448.718 1.182 1.225 2.013 1.39.198.039.398.059.599.059.638 0 1.269-.197 1.793-.572l.075-.054c1.316-.938 1.676-2.749.82-4.12-2.945-4.714-4.521-10.163-4.559-15.746zm2.576 18.237s-.075.054-.075.055c-.246.174-.546.237-.839.179-.296-.059-.547-.231-.706-.486-3.323-5.322-5.12-11.473-5.195-17.785 0-.02-.001-.039-.002-.059l.002-.354c.075-6.313 1.871-12.463 5.194-17.785.159-.255.41-.428.706-.486.298-.06.596.005.916.234.458.326.583.955.285 1.432-3.139 5.026-4.821 10.836-4.862 16.818.041 5.966 1.723 11.777 4.861 16.803.298.478.173 1.108-.285 1.434z"/><path d="m95.849 33.034c-.032 2.036-.545 3.96-1.521 5.718-.773 1.39-.438 3.076.797 4.01l.073.055c.535.405 1.185.619 1.845.619.209 0 .419-.021.627-.065.882-.184 1.642-.744 2.086-1.535 1.456-2.596 2.239-5.432 2.329-8.433.006-.049.01-.099.009-.148l-.006-.446c-.074-3.041-.858-5.915-2.332-8.543-.443-.791-1.203-1.351-2.085-1.535-.862-.183-1.767.019-2.546.609-1.236.933-1.571 2.619-.797 4.01.977 1.755 1.488 3.679 1.521 5.684zm.226-6.658c-.284-.51-.178-1.116.327-1.497.249-.188.554-.256.858-.192.315.066.589.27.75.557 1.313 2.34 2.011 4.901 2.076 7.603l.005.327c-.003.023-.004.047-.005.07-.065 2.712-.764 5.273-2.076 7.613-.161.287-.436.49-.751.557-.306.064-.61-.005-.861-.196l-.071-.053c-.43-.326-.535-.931-.252-1.44 1.139-2.049 1.735-4.289 1.773-6.689-.037-2.371-.634-4.611-1.773-6.66z"/><path d="m105.005 33.04c-.035 3.748-1.052 7.421-2.938 10.622-.823 1.397-.457 3.151.928 4.135.526.374 1.155.57 1.793.57.214 0 .429-.022.641-.067.833-.177 1.559-.696 1.99-1.425 2.411-4.071 3.733-8.738 3.824-13.502.004-.037.006-.076.006-.114l-.004-.442c-.076-4.793-1.399-9.493-3.826-13.593-.432-.729-1.157-1.247-1.991-1.425-.841-.178-1.73.005-2.435.505l-.074.053c-1.31.93-1.676 2.684-.852 4.08 1.886 3.202 2.903 6.875 2.938 10.603zm-.928-13.054.075-.054c.186-.132.407-.201.632-.201.076 0 .152.008.228.024.293.062.536.235.686.487 2.249 3.8 3.477 8.159 3.547 12.598l.003.347c-.001.021-.003.043-.003.064-.07 4.447-1.297 8.806-3.547 12.604-.149.253-.393.426-.686.488-.299.062-.611-.002-.935-.231-.456-.323-.579-.94-.288-1.435 2.065-3.503 3.178-7.521 3.216-11.638-.038-4.097-1.15-8.115-3.216-11.619-.292-.493-.168-1.11.288-1.434z"/><path d="m120.081 32.82c-.08-6.679-1.981-13.187-5.498-18.82-.448-.718-1.183-1.225-2.014-1.39-.83-.167-1.703.021-2.468.568-1.314.938-1.675 2.748-.818 4.12 2.944 4.713 4.521 10.162 4.558 15.744-.037 5.596-1.613 11.044-4.559 15.759-.855 1.372-.494 3.183.82 4.121l.075.053c.524.375 1.155.572 1.793.572.2 0 .4-.02.599-.059.831-.165 1.565-.672 2.014-1.39 3.516-5.633 5.418-12.141 5.5-18.837zm-2 .436c-.075 6.312-1.872 12.462-5.195 17.785-.159.255-.41.428-.706.486-.299.062-.595-.005-.84-.179l-.075-.054s0 0 0-.001c-.458-.326-.583-.956-.285-1.434 3.14-5.027 4.821-10.839 4.861-16.817-.04-5.966-1.722-11.777-4.861-16.804-.298-.478-.173-1.106.36-1.488.186-.132.401-.2.624-.2.071 0 .144.007.216.021.296.059.547.231.706.486 3.323 5.323 5.12 11.474 5.195 17.773z"/></g></svg>