<svg id="Capa_1" enable-background="new 0 0 512 512" height="512" viewBox="0 0 512 512" width="512" xmlns="http://www.w3.org/2000/svg"><g><g><path d="m310.114 512h-228.943c-11.495 0-20.813-9.318-20.813-20.813v-470.374c0-11.495 9.318-20.813 20.813-20.813h228.943c11.495 0 20.813 9.318 20.813 20.813v470.374c0 11.495-9.318 20.813-20.813 20.813z" fill="#e9a761"/></g><g><path d="m310.114 0h-23.935c11.495 0 20.813 9.318 20.813 20.813v470.374c0 11.495-9.318 20.813-20.813 20.813h23.935c11.495 0 20.813-9.318 20.813-20.813v-470.374c0-11.495-9.318-20.813-20.813-20.813z" fill="#e69642"/></g><g><path d="m98.862 465.254v-418.508c0-4.552 3.69-8.241 8.241-8.241h177.078c4.552 0 8.241 3.69 8.241 8.241v418.509c0 4.552-3.69 8.241-8.241 8.241h-177.078c-4.551 0-8.241-3.69-8.241-8.242z" fill="#e38523"/></g><g><g><g><path d="m242.737 381.869c-1.919 0-3.839-.732-5.303-2.197-11.143-11.143-25.984-17.279-41.792-17.279-15.807 0-30.648 6.137-41.791 17.279-2.929 2.929-7.678 2.929-10.606 0-2.929-2.929-2.929-7.678 0-10.606 13.976-13.976 32.584-21.673 52.397-21.673 19.814 0 38.422 7.697 52.398 21.673 2.929 2.929 2.929 7.678 0 10.606-1.464 1.465-3.384 2.197-5.303 2.197z" fill="#ddebfd"/></g><g><path d="m172.095 405.416c-1.919 0-3.839-.732-5.303-2.197-2.929-2.929-2.929-7.678 0-10.606 15.908-15.908 41.792-15.908 57.701 0 2.929 2.929 2.929 7.677 0 10.606s-7.678 2.93-10.606 0c-10.06-10.06-26.428-10.06-36.488 0-1.465 1.465-3.384 2.197-5.304 2.197z" fill="#ddebfd"/></g></g><g><circle cx="195.642" cy="421.463" fill="#ddebfd" r="8.325"/></g></g><g><path d="m157.138 155.057v-72.846c0-5.747 4.659-10.407 10.406-10.407h56.195c5.747 0 10.407 4.659 10.407 10.407v72.846c0 5.747-4.659 10.406-10.407 10.406h-56.195c-5.747 0-10.406-4.659-10.406-10.406z" fill="#b7e546"/></g><g><path d="m223.74 71.805h-23.935c5.747 0 10.407 4.659 10.407 10.407v72.846c0 5.747-4.659 10.406-10.407 10.406h23.935c5.747 0 10.407-4.659 10.407-10.406v-72.847c-.001-5.747-4.66-10.406-10.407-10.406z" fill="#abd641"/></g><g><path d="m443.401 231.024h-196.25c-9.753-20.077-30.894-33.598-55.027-32.155-28.992 1.734-52.319 25.411-53.655 54.424-1.513 32.841 24.665 59.942 57.173 59.942 22.655 0 42.233-13.165 51.509-32.26h196.25c4.552 0 8.241-3.69 8.241-8.241v-33.468c0-4.552-3.69-8.242-8.241-8.242z" fill="#ddebfd"/></g><g><path d="m433.951 231.024v28.098c0 4.598-3.727 8.325-8.325 8.325h-185.861c-3.66 0-7.005 1.952-8.929 5.066-10.083 16.319-28.131 27.194-48.723 27.194-12.351 0-23.778-3.925-33.13-10.577 10.374 14.583 27.399 24.106 46.658 24.106 22.655 0 42.233-13.165 51.509-32.26h196.25c4.552 0 8.241-3.69 8.241-8.241v-33.468c0-4.552-3.69-8.241-8.241-8.241h-9.449z" fill="#bed9fd"/></g><g><circle cx="195.642" cy="256" fill="#8aaadc" r="23.935"/></g></g></svg>