<svg id="Capa_1" enable-background="new 0 0 512 512" height="512" viewBox="0 0 512 512" width="512" xmlns="http://www.w3.org/2000/svg"><g><path d="m258.21 49.43h133.29v68.86h-133.29z" fill="#41567f"/><path d="m324.86 49.43h66.64v68.86h-66.64z" fill="#293e65"/><path d="m239.34 34.43h171.04v30h-171.04z" fill="#5d7198"/><path d="m324.86 34.43h85.52v30h-85.52z" fill="#41567f"/><path d="m468.78 103.29h-425.56l-43.22 43.21v287.86l43.22 43.21h425.56l43.22-43.21v-287.86z" fill="#cddceb"/><path d="m512 146.5v287.86l-43.22 43.21h-143.92v-374.28h143.92z" fill="#afc8db"/><path d="m482 230.95v190.98l-25.64 25.64h-400.72l-25.64-25.64v-190.97l294.86-14.01z" fill="#8adb51"/><path d="m482 230.95v190.98l-25.64 25.64h-131.5v-230.62z" fill="#4ab564"/><path d="m482 158.93v72.02c-16.33 7.19-21.19 25.05-45.25 25.05-30.13 0-30.13-28-60.26-28-26.93 0-29.78 22.39-51.63 27.12-2.58.57-5.43.88-8.62.88-30.12 0-30.12-28-60.25-28-30.12 0-30.12 28-60.24 28-30.13 0-30.13-28-60.25-28-30.13 0-30.13 28-60.25 28-24.07 0-28.92-17.86-45.25-25.04v-72.03l25.64-25.64h400.72z" fill="#eff3f7"/><path d="m482 158.93v72.02c-16.33 7.19-21.19 25.05-45.25 25.05-30.13 0-30.13-28-60.26-28-26.93 0-29.78 22.39-51.63 27.12v-121.83h131.5z" fill="#cddceb"/></g></svg>