<svg id="Layer_1" height="512" viewBox="0 0 512 512" width="512" xmlns="http://www.w3.org/2000/svg" data-name="Layer 1"><path d="m327.01 93.05v-26.8a44.077 44.077 0 0 0 -44.08-44.07h-167.95a44.077 44.077 0 0 0 -44.08 44.07v379.5a44.077 44.077 0 0 0 44.08 44.07h279.8a44.069 44.069 0 0 0 44.07-44.07v-295zm-44.09 33.06h-166.74v-47.81a13.224 13.224 0 0 1 13.23-13.22h140.28a13.224 13.224 0 0 1 13.23 13.22z" fill="#a0eaea"/><path d="m363.91 205.2v202.29a14.3 14.3 0 0 1 -14.3 14.3h-189.47a14.3 14.3 0 0 1 -14.3-14.3v-202.29a14.3 14.3 0 0 1 14.3-14.3h189.47a14.3 14.3 0 0 1 14.3 14.3z" fill="#5ac5df"/><path d="m293.98 305.51a51.705 51.705 0 1 1 -89.23 0l44.62-76.17z" fill="#fb6771"/><path d="m441.1 110.09-14.76 33.38-.34.65-85.28-44 14.6-31.68z" fill="#3090fc"/><path d="m227.66 331.63a51.573 51.573 0 0 1 7.09-26.12l29.618-50.561-15-25.609-44.62 76.17a51.709 51.709 0 0 0 59.618 75.624 51.7 51.7 0 0 1 -36.708-49.5z" fill="#e75163"/><path d="m175.84 407.49v-202.29a14.3 14.3 0 0 1 14.3-14.3h-30a14.3 14.3 0 0 0 -14.3 14.3v202.29a14.3 14.3 0 0 0 14.3 14.3h30a14.3 14.3 0 0 1 -14.3-14.3z" fill="#46b4c6"/><path d="m100.9 445.75v-379.5a44.077 44.077 0 0 1 44.08-44.07h-30a44.077 44.077 0 0 0 -44.08 44.07v379.5a44.077 44.077 0 0 0 44.08 44.07h30a44.077 44.077 0 0 1 -44.08-44.07z" fill="#83d6d3"/><g fill="#f4f8fc"><path d="m258.75 358.4a6 6 0 0 1 -1.951-11.675 22.816 22.816 0 0 0 14.9-17.031 6 6 0 1 1 11.762 2.375 34.812 34.812 0 0 1 -22.762 26 6 6 0 0 1 -1.949.331z"/><path d="m113.465 211.8a6 6 0 0 1 -6-6v-7.828a6 6 0 0 1 12 0v7.828a6 6 0 0 1 -6 6z"/><path d="m113.465 347.237a6 6 0 0 1 -6-6v-117.523a6 6 0 0 1 12 0v117.523a6 6 0 0 1 -6 6z"/></g></svg>