<svg id="Capa_1" enable-background="new 0 0 512 512" height="512" viewBox="0 0 512 512" width="512" xmlns="http://www.w3.org/2000/svg" xmlns:xlink="http://www.w3.org/1999/xlink"><linearGradient id="lg1"><stop offset="0" stop-color="#008a4c"/><stop offset="1" stop-color="#d3ff33"/></linearGradient><linearGradient id="SVGID_1_" gradientUnits="userSpaceOnUse" x1="74.98" x2="437.019" xlink:href="#lg1" y1="437.019" y2="74.98"/><radialGradient id="SVGID_2_" cx="257.352" cy="275.605" gradientUnits="userSpaceOnUse" r="273.565"><stop offset="0" stop-color="#008a4c" stop-opacity=".6"/><stop offset=".1588" stop-color="#2fa446" stop-opacity=".505"/><stop offset=".3758" stop-color="#69c440" stop-opacity=".375"/><stop offset=".5762" stop-color="#97de3a" stop-opacity=".254"/><stop offset=".7534" stop-color="#b8f036" stop-opacity=".148"/><stop offset=".9007" stop-color="#ccfb34" stop-opacity=".06"/><stop offset="1" stop-color="#d3ff33" stop-opacity="0"/></radialGradient><linearGradient id="lg2"><stop offset="0" stop-color="#006946"/><stop offset=".186" stop-color="#008547"/><stop offset=".2847" stop-color="#128f45"/><stop offset=".4829" stop-color="#41aa41"/><stop offset=".7596" stop-color="#8cd63a"/><stop offset="1" stop-color="#d3ff33"/></linearGradient><linearGradient id="SVGID_3_" gradientTransform="matrix(.707 -.707 .707 .707 326.711 76.749)" gradientUnits="userSpaceOnUse" x1="-231.823" x2="436.979" xlink:href="#lg2" y1="-86.842" y2="-86.842"/><linearGradient id="SVGID_4_" gradientUnits="userSpaceOnUse" x1="39.924" x2="639.889" xlink:href="#lg2" y1="240.574" y2="-359.391"/><linearGradient id="SVGID_5_" gradientUnits="userSpaceOnUse" x1="-62.523" x2="598.759" xlink:href="#lg2" y1="331.694" y2="-329.588"/><linearGradient id="SVGID_6_" gradientUnits="userSpaceOnUse" x1="126.511" x2="183.397" y1="83.032" y2="139.918"><stop offset="0" stop-color="#008547" stop-opacity="0"/><stop offset=".3719" stop-color="#007f47" stop-opacity=".298"/><stop offset=".8416" stop-color="#007046" stop-opacity=".673"/><stop offset="1" stop-color="#006946" stop-opacity=".8"/></linearGradient><linearGradient id="lg3"><stop offset="0" stop-color="#95e12e"/><stop offset=".5" stop-color="#d3ff33"/><stop offset="1" stop-color="#fff"/></linearGradient><linearGradient id="SVGID_7_" gradientUnits="userSpaceOnUse" x1="-157.076" x2="1156.954" xlink:href="#lg3" y1="662.466" y2="-651.564"/><linearGradient id="SVGID_8_" gradientUnits="userSpaceOnUse" x1="-499.748" x2="1186.113" xlink:href="#lg3" y1="1059.364" y2="-626.498"/><linearGradient id="SVGID_9_" gradientUnits="userSpaceOnUse" x1="31.669" x2="394.198" xlink:href="#lg1" y1="409.588" y2="47.058"/><linearGradient id="SVGID_10_" gradientUnits="userSpaceOnUse" x1="150.121" x2="1016.221" xlink:href="#lg3" y1="346.434" y2="-519.666"/><linearGradient id="SVGID_11_" gradientUnits="userSpaceOnUse" x1="78.32" x2="951.468" xlink:href="#lg3" y1="505.35" y2="-367.798"/><linearGradient id="lg4"><stop offset="0" stop-color="#008547"/><stop offset=".1212" stop-color="#128f45"/><stop offset=".3647" stop-color="#41aa41"/><stop offset=".7046" stop-color="#8cd63a"/><stop offset="1" stop-color="#d3ff33"/></linearGradient><linearGradient id="SVGID_12_" gradientUnits="userSpaceOnUse" x1="-230.93" x2="640.761" xlink:href="#lg4" y1="779.7" y2="-91.991"/><linearGradient id="SVGID_13_" gradientUnits="userSpaceOnUse" x1="-137.545" x2="746.684" xlink:href="#lg4" y1="832.93" y2="-51.299"/><linearGradient id="SVGID_14_" gradientUnits="userSpaceOnUse" x1="-268.008" x2="588.665" xlink:href="#lg4" y1="847.263" y2="-9.41"/><linearGradient id="SVGID_15_" gradientUnits="userSpaceOnUse" x1="-210.062" x2="638.465" xlink:href="#lg4" y1="697.37" y2="-151.157"/><g><circle cx="256" cy="256" fill="url(#SVGID_1_)" r="256"/><circle cx="256" cy="256" fill="url(#SVGID_2_)" r="256"/><path d="m111.284 127.6c-6.086 6.122-6.326 15.589-.487 21.245 10.566 10.244 21.215 20.643 31.924 31.159 12.745-12.719 25.477-25.515 38.161-38.328-14.214-14.138-28.304-28.094-42.218-41.777-9.1 9.262-18.231 18.503-27.38 27.701z" fill="url(#SVGID_3_)"/><path d="m149.604 88.739c-3.641 3.722-7.288 7.443-10.94 11.16-6.053 6.164-6.296 15.716-.485 21.414 10.516 10.324 21.122 20.792 31.794 31.367 17.887-18.013 35.698-36.095 53.335-54.078-3.551-3.588-7.092-7.167-10.625-10.735-21.031.033-42.057.322-63.079.872z" fill="url(#SVGID_4_)"/><path d="m212.683 87.867c-7.041-7.112-14.044-14.181-21.003-21.195-5.77-5.824-15.245-5.496-21.237.68-6.921 7.129-13.869 14.262-20.839 21.387 16.981 16.766 45.177 16.462 63.079-.872z" fill="url(#SVGID_5_)"/><path d="m212.683 87.867c-7.041-7.112-14.044-14.181-21.003-21.195-5.77-5.824-15.245-5.496-21.237.68-19.545 20.133-39.308 40.29-59.159 60.248-6.086 6.122-6.326 15.589-.487 21.245 10.566 10.244 21.215 20.643 31.924 31.159 27.033-26.977 54.007-54.302 80.587-81.402-3.551-3.588-7.093-7.167-10.625-10.735z" fill="url(#SVGID_6_)"/><path d="m256.305 68.615c-15.937-.02-31.245 6.637-42.675 18.329-26.892 27.515-54.207 55.241-81.598 82.584-14.547 14.536-22.897 33.78-23.022 53.682-.317 49.29.081 98.58 1.192 147.87 1.053 41.079 36.162 77.235 77.246 78.606 24.027.721 48.055 1.052 72.082.994.175-127.353.178-254.707.01-382.06-1.078-.002-2.156-.004-3.235-.005z" fill="url(#SVGID_7_)"/><path d="m347.222 70.48c-29.227-1.172-58.454-1.792-87.682-1.859-16.575-.038-30.119 13.892-30.227 30.854-.544 106.783-.532 213.565.038 320.348.114 16.962 13.636 30.899 30.179 30.858 21.674-.052 43.347-.421 65.021-1.106 41.084-1.445 76.227-37.613 77.303-78.636 1.893-81.751 1.766-163.503-.38-245.254-.821-28.885-25.282-53.965-54.252-55.205z" fill="url(#SVGID_8_)"/><path d="m348.625 146.589c.001-.083-49.363-.972-61.017-.962-12.644-.103-22.905-10.446-22.92-23.184-.013-12.735 10.128-23.036 22.653-22.884 11.56-.014 60.529 1.245 60.529 1.364 12.524.429 22.939 11.03 23.208 23.555.268 12.529-9.81 22.391-22.453 22.111z" fill="url(#SVGID_9_)"/><path d="m186.061 176.649c-25.344.349-46.179 21.152-46.322 46.2-.25 49.755.063 99.51.94 149.266.482 25.044 21.301 46.311 46.285 46.98 14.129.354 28.259.597 42.388.728 17.558-40.423 35.661-81.146 53.792-121.773-18.003-40.53-36.218-81.246-54.126-121.754-14.319.063-28.638.181-42.957.353z" fill="url(#SVGID_10_)"/><path d="m326.015 176.695c-32.332-.41-64.665-.544-96.997-.4-.08 30.899-.114 61.798-.101 92.697-5.12 10.575-10.232 21.139-15.325 31.685 5.143 10.587 10.286 21.185 15.418 31.785.073 29.12.186 58.24.342 87.359 31.904.295 63.808.021 95.711-.822 24.984-.704 45.821-21.98 46.316-46.998.905-49.707 1.228-99.414.97-149.121-.145-25.02-20.99-45.817-46.334-46.185z" fill="url(#SVGID_11_)"/><path d="m337.076 211.829c-6.026-6.009-15.742-6.099-21.716-.153-4.727 4.701-9.46 9.415-14.197 14.138 7.256 7.253 14.514 14.496 21.766 21.716 4.746-4.719 9.488-9.427 14.225-14.121 5.99-5.935 5.949-15.57-.078-21.58z" fill="url(#SVGID_12_)"/><path d="m336.572 362.131c-4.661-4.621-9.334-9.263-14.019-13.921-7.267 7.312-14.522 14.632-21.758 21.949 4.676 4.682 9.341 9.348 13.991 13.995 5.879 5.881 15.488 5.66 21.512-.443 6.024-6.105 6.167-15.74.274-21.58z" fill="url(#SVGID_13_)"/><path d="m322.353 369.84c6.015-6.08 6.123-15.744.199-21.631-5.688-5.656-8.864-13.417-8.82-21.541.105-19.164.167-38.328.187-57.492.009-8.124 3.247-15.918 9.01-21.647 6-5.966 5.981-15.629-.037-21.631-6.017-6.001-15.74-6.057-21.729-.085-1.165 1.162-2.331 2.324-3.497 3.487-5.756 5.74-13.575 8.967-21.728 8.96-13.262-.011-26.524-.012-39.786-.003-2.457.002-4.882-.296-7.232-.862-5.13 10.537-10.259 21.067-15.376 31.582 23.21.027 46.42.031 69.63.012-.009 19.373-.04 38.746-.091 58.119-23.137.105-46.273.084-69.41-.063 5.148 10.553 10.289 21.114 15.414 31.675 2.332-.555 4.742-.843 7.183-.833 13.176.054 26.352.048 39.528-.017 8.101-.039 15.859 3.135 21.545 8.829 1.152 1.154 2.303 2.306 3.453 3.458 5.911 5.922 15.542 5.763 21.557-.317z" fill="url(#SVGID_14_)"/><path d="m228.92 237.396c-5.446-1.313-10.476-4.092-14.497-8.105-5.907-5.893-11.807-11.775-17.698-17.637-5.976-5.951-15.69-5.865-21.716.145-6.025 6.011-6.065 15.654-.075 21.593 4.737 4.698 9.48 9.41 14.226 14.132 5.762 5.732 9.002 13.531 9.01 21.658.018 19.173.077 38.346.175 57.52.041 8.127-3.138 15.895-8.828 21.558-4.687 4.665-9.362 9.313-14.025 13.942-5.896 5.849-5.759 15.492.261 21.593 6.021 6.101 15.629 6.31 21.512.42 5.798-5.8 11.618-11.628 17.455-17.478 3.974-3.983 8.96-6.73 14.366-8.017-.135-40.441-.19-80.882-.166-121.324z" fill="url(#SVGID_15_)"/></g></svg>